<?xml version="1.0" encoding="UTF-8" standalone="no"?>
<!DOCTYPE svg PUBLIC "-//W3C//DTD SVG 1.1//EN"
 "http://www.w3.org/Graphics/SVG/1.1/DTD/svg11.dtd">
<!-- Generated by graphviz version 2.40.1 (20161225.0304)
 -->
<!-- Title: dependencies Pages: 1 -->
<svg width="917pt" height="211pt"
 viewBox="0.00 0.00 917.00 211.00" xmlns="http://www.w3.org/2000/svg" xmlns:xlink="http://www.w3.org/1999/xlink">
<g id="graph0" class="graph" transform="scale(1 1) rotate(0) translate(4 207)">
<title>dependencies</title>
<polygon fill="#ffffff" stroke="transparent" points="-4,4 -4,-207 913,-207 913,4 -4,4"/>
<text text-anchor="start" x="433.5091" y="-42.4" font-family="sans-serif" font-weight="bold" font-size="14.00" fill="#000000">Legend</text>
<polygon fill="#ffffb3" stroke="transparent" points="220.5,-10 220.5,-30 240.5,-30 240.5,-10 220.5,-10"/>
<text text-anchor="start" x="244.129" y="-15.4" font-family="sans-serif" font-size="14.00" fill="#000000"> &#160;Declarations</text>
<polygon fill="#8dd3c7" stroke="transparent" points="333.5,-10 333.5,-30 353.5,-30 353.5,-10 333.5,-10"/>
<text text-anchor="start" x="357.2251" y="-15.4" font-family="sans-serif" font-size="14.00" fill="#000000"> &#160;Module</text>
<polygon fill="#80b1d3" stroke="transparent" points="419.5,-10 419.5,-30 439.5,-30 439.5,-10 419.5,-10"/>
<text text-anchor="start" x="443.2812" y="-15.4" font-family="sans-serif" font-size="14.00" fill="#000000"> &#160;Bootstrap</text>
<polygon fill="#fdb462" stroke="transparent" points="516.5,-10 516.5,-30 536.5,-30 536.5,-10 516.5,-10"/>
<text text-anchor="start" x="540.1732" y="-15.4" font-family="sans-serif" font-size="14.00" fill="#000000"> &#160;Providers</text>
<polygon fill="#fb8072" stroke="transparent" points="612.5,-10 612.5,-30 632.5,-30 632.5,-10 612.5,-10"/>
<text text-anchor="start" x="636.2258" y="-15.4" font-family="sans-serif" font-size="14.00" fill="#000000"> &#160;Exports</text>
<g id="clust1" class="cluster">
<title>cluster_DialogsPageModule</title>
<polygon fill="none" stroke="#000000" stroke-dasharray="1,5" points="8,-70 8,-195 901,-195 901,-70 8,-70"/>
</g>
<g id="clust2" class="cluster">
<title>cluster_DialogsPageModule_declarations</title>
<polygon fill="none" stroke="#000000" points="791,-78 791,-130 893,-130 893,-78 791,-78"/>
</g>
<g id="clust4" class="cluster">
<title>cluster_DialogsPageModule_imports</title>
<polygon fill="none" stroke="#000000" points="16,-78 16,-130 783,-130 783,-78 16,-78"/>
</g>
<!-- DialogsPage -->
<g id="node1" class="node">
<title>DialogsPage</title>
<polygon fill="#ffffb3" stroke="#000000" points="885.2591,-122 798.7409,-122 798.7409,-86 885.2591,-86 885.2591,-122"/>
<text text-anchor="middle" x="842" y="-99.8" font-family="Times,serif" font-size="14.00" fill="#000000">DialogsPage</text>
</g>
<!-- DialogsPageModule -->
<g id="node2" class="node">
<title>DialogsPageModule</title>
<polygon fill="#8dd3c7" stroke="#000000" points="608.309,-187 605.309,-191 584.309,-191 581.309,-187 477.691,-187 477.691,-151 608.309,-151 608.309,-187"/>
<text text-anchor="middle" x="543" y="-164.8" font-family="Times,serif" font-size="14.00" fill="#000000">DialogsPageModule</text>
</g>
<!-- DialogsPage&#45;&gt;DialogsPageModule -->
<g id="edge1" class="edge">
<title>DialogsPage&#45;&gt;DialogsPageModule</title>
<path fill="none" stroke="#000000" d="M842,-122.2843C842,-143.3211 842,-175 842,-175 842,-175 618.2473,-175 618.2473,-175"/>
<polygon fill="#000000" stroke="#000000" points="618.2474,-171.5001 608.2473,-175 618.2473,-178.5001 618.2474,-171.5001"/>
</g>
<!-- CommonModule -->
<g id="node3" class="node">
<title>CommonModule</title>
<polygon fill="#8dd3c7" stroke="#000000" points="774.6681,-122 771.6681,-126 750.6681,-126 747.6681,-122 663.3319,-122 663.3319,-86 774.6681,-86 774.6681,-122"/>
<text text-anchor="middle" x="719" y="-99.8" font-family="Times,serif" font-size="14.00" fill="#000000">CommonModule</text>
</g>
<!-- CommonModule&#45;&gt;DialogsPageModule -->
<g id="edge2" class="edge">
<title>CommonModule&#45;&gt;DialogsPageModule</title>
<path fill="none" stroke="#000000" d="M719,-122.0225C719,-139.3734 719,-163 719,-163 719,-163 618.5359,-163 618.5359,-163"/>
<polygon fill="#000000" stroke="#000000" points="618.5359,-159.5001 608.5359,-163 618.5359,-166.5001 618.5359,-159.5001"/>
</g>
<!-- FormsModule -->
<g id="node4" class="node">
<title>FormsModule</title>
<polygon fill="#8dd3c7" stroke="#000000" points="645.8288,-122 642.8288,-126 621.8288,-126 618.8288,-122 550.1712,-122 550.1712,-86 645.8288,-86 645.8288,-122"/>
<text text-anchor="middle" x="598" y="-99.8" font-family="Times,serif" font-size="14.00" fill="#000000">FormsModule</text>
</g>
<!-- FormsModule&#45;&gt;DialogsPageModule -->
<g id="edge3" class="edge">
<title>FormsModule&#45;&gt;DialogsPageModule</title>
<path fill="none" stroke="#000000" d="M579.2451,-122.1061C579.2451,-122.1061 579.2451,-140.991 579.2451,-140.991"/>
<polygon fill="#000000" stroke="#000000" points="575.7452,-140.9909 579.2451,-150.991 582.7452,-140.991 575.7452,-140.9909"/>
</g>
<!-- IonicModule -->
<g id="node5" class="node">
<title>IonicModule</title>
<polygon fill="#8dd3c7" stroke="#000000" points="532.3162,-122 529.3162,-126 508.3162,-126 505.3162,-122 443.6838,-122 443.6838,-86 532.3162,-86 532.3162,-122"/>
<text text-anchor="middle" x="488" y="-99.8" font-family="Times,serif" font-size="14.00" fill="#000000">IonicModule</text>
</g>
<!-- IonicModule&#45;&gt;DialogsPageModule -->
<g id="edge4" class="edge">
<title>IonicModule&#45;&gt;DialogsPageModule</title>
<path fill="none" stroke="#000000" d="M505.0018,-122.1061C505.0018,-122.1061 505.0018,-140.991 505.0018,-140.991"/>
<polygon fill="#000000" stroke="#000000" points="501.5018,-140.9909 505.0018,-150.991 508.5018,-140.991 501.5018,-140.9909"/>
</g>
<!-- OkodeNgxCustomPaletteModule -->
<g id="node6" class="node">
<title>OkodeNgxCustomPaletteModule</title>
<polygon fill="#8dd3c7" stroke="#000000" points="426.1385,-122 423.1385,-126 402.1385,-126 399.1385,-122 223.8615,-122 223.8615,-86 426.1385,-86 426.1385,-122"/>
<text text-anchor="middle" x="325" y="-99.8" font-family="Times,serif" font-size="14.00" fill="#000000">OkodeNgxCustomPaletteModule</text>
</g>
<!-- OkodeNgxCustomPaletteModule&#45;&gt;DialogsPageModule -->
<g id="edge5" class="edge">
<title>OkodeNgxCustomPaletteModule&#45;&gt;DialogsPageModule</title>
<path fill="none" stroke="#000000" d="M325,-122.0225C325,-139.3734 325,-163 325,-163 325,-163 467.5928,-163 467.5928,-163"/>
<polygon fill="#000000" stroke="#000000" points="467.5928,-166.5001 477.5928,-163 467.5928,-159.5001 467.5928,-166.5001"/>
</g>
<!-- RouterModule.forChild(args) -->
<g id="node7" class="node">
<title>RouterModule.forChild(args)</title>
<polygon fill="#8dd3c7" stroke="#000000" points="205.7323,-122 202.7323,-126 181.7323,-126 178.7323,-122 24.2677,-122 24.2677,-86 205.7323,-86 205.7323,-122"/>
<text text-anchor="middle" x="115" y="-99.8" font-family="Times,serif" font-size="14.00" fill="#000000">RouterModule.forChild(args)</text>
</g>
<!-- RouterModule.forChild(args)&#45;&gt;DialogsPageModule -->
<g id="edge6" class="edge">
<title>RouterModule.forChild(args)&#45;&gt;DialogsPageModule</title>
<path fill="none" stroke="#000000" d="M115,-122.2843C115,-143.3211 115,-175 115,-175 115,-175 467.5301,-175 467.5301,-175"/>
<polygon fill="#000000" stroke="#000000" points="467.5301,-178.5001 477.5301,-175 467.5301,-171.5001 467.5301,-178.5001"/>
</g>
</g>
</svg>
