<?xml version="1.0" encoding="UTF-8" standalone="no"?>
<!DOCTYPE svg PUBLIC "-//W3C//DTD SVG 1.1//EN"
 "http://www.w3.org/Graphics/SVG/1.1/DTD/svg11.dtd">
<!-- Generated by graphviz version 2.40.1 (20161225.0304)
 -->
<!-- Title: dependencies Pages: 1 -->
<svg width="909pt" height="211pt"
 viewBox="0.00 0.00 909.00 211.00" xmlns="http://www.w3.org/2000/svg" xmlns:xlink="http://www.w3.org/1999/xlink">
<g id="graph0" class="graph" transform="scale(1 1) rotate(0) translate(4 207)">
<title>dependencies</title>
<polygon fill="#ffffff" stroke="transparent" points="-4,4 -4,-207 905,-207 905,4 -4,4"/>
<text text-anchor="start" x="429.5091" y="-42.4" font-family="sans-serif" font-weight="bold" font-size="14.00" fill="#000000">Legend</text>
<polygon fill="#ffffb3" stroke="transparent" points="216.5,-10 216.5,-30 236.5,-30 236.5,-10 216.5,-10"/>
<text text-anchor="start" x="240.129" y="-15.4" font-family="sans-serif" font-size="14.00" fill="#000000"> &#160;Declarations</text>
<polygon fill="#8dd3c7" stroke="transparent" points="329.5,-10 329.5,-30 349.5,-30 349.5,-10 329.5,-10"/>
<text text-anchor="start" x="353.2251" y="-15.4" font-family="sans-serif" font-size="14.00" fill="#000000"> &#160;Module</text>
<polygon fill="#80b1d3" stroke="transparent" points="415.5,-10 415.5,-30 435.5,-30 435.5,-10 415.5,-10"/>
<text text-anchor="start" x="439.2812" y="-15.4" font-family="sans-serif" font-size="14.00" fill="#000000"> &#160;Bootstrap</text>
<polygon fill="#fdb462" stroke="transparent" points="512.5,-10 512.5,-30 532.5,-30 532.5,-10 512.5,-10"/>
<text text-anchor="start" x="536.1732" y="-15.4" font-family="sans-serif" font-size="14.00" fill="#000000"> &#160;Providers</text>
<polygon fill="#fb8072" stroke="transparent" points="608.5,-10 608.5,-30 628.5,-30 628.5,-10 608.5,-10"/>
<text text-anchor="start" x="632.2258" y="-15.4" font-family="sans-serif" font-size="14.00" fill="#000000"> &#160;Exports</text>
<g id="clust1" class="cluster">
<title>cluster_FormsPageModule</title>
<polygon fill="none" stroke="#000000" stroke-dasharray="1,5" points="8,-70 8,-195 893,-195 893,-70 8,-70"/>
</g>
<g id="clust2" class="cluster">
<title>cluster_FormsPageModule_declarations</title>
<polygon fill="none" stroke="#000000" points="791,-78 791,-130 885,-130 885,-78 791,-78"/>
</g>
<g id="clust4" class="cluster">
<title>cluster_FormsPageModule_imports</title>
<polygon fill="none" stroke="#000000" points="16,-78 16,-130 783,-130 783,-78 16,-78"/>
</g>
<!-- FormsPage -->
<g id="node1" class="node">
<title>FormsPage</title>
<polygon fill="#ffffb3" stroke="#000000" points="877.4902,-122 798.5098,-122 798.5098,-86 877.4902,-86 877.4902,-122"/>
<text text-anchor="middle" x="838" y="-99.8" font-family="Times,serif" font-size="14.00" fill="#000000">FormsPage</text>
</g>
<!-- FormsPageModule -->
<g id="node2" class="node">
<title>FormsPageModule</title>
<polygon fill="#8dd3c7" stroke="#000000" points="604.0409,-187 601.0409,-191 580.0409,-191 577.0409,-187 481.9591,-187 481.9591,-151 604.0409,-151 604.0409,-187"/>
<text text-anchor="middle" x="543" y="-164.8" font-family="Times,serif" font-size="14.00" fill="#000000">FormsPageModule</text>
</g>
<!-- FormsPage&#45;&gt;FormsPageModule -->
<g id="edge1" class="edge">
<title>FormsPage&#45;&gt;FormsPageModule</title>
<path fill="none" stroke="#000000" d="M838,-122.2843C838,-143.3211 838,-175 838,-175 838,-175 614.1242,-175 614.1242,-175"/>
<polygon fill="#000000" stroke="#000000" points="614.1242,-171.5001 604.1242,-175 614.1242,-178.5001 614.1242,-171.5001"/>
</g>
<!-- CommonModule -->
<g id="node3" class="node">
<title>CommonModule</title>
<polygon fill="#8dd3c7" stroke="#000000" points="774.6681,-122 771.6681,-126 750.6681,-126 747.6681,-122 663.3319,-122 663.3319,-86 774.6681,-86 774.6681,-122"/>
<text text-anchor="middle" x="719" y="-99.8" font-family="Times,serif" font-size="14.00" fill="#000000">CommonModule</text>
</g>
<!-- CommonModule&#45;&gt;FormsPageModule -->
<g id="edge2" class="edge">
<title>CommonModule&#45;&gt;FormsPageModule</title>
<path fill="none" stroke="#000000" d="M719,-122.0225C719,-139.3734 719,-163 719,-163 719,-163 614.0623,-163 614.0623,-163"/>
<polygon fill="#000000" stroke="#000000" points="614.0624,-159.5001 604.0623,-163 614.0623,-166.5001 614.0624,-159.5001"/>
</g>
<!-- FormsModule -->
<g id="node4" class="node">
<title>FormsModule</title>
<polygon fill="#8dd3c7" stroke="#000000" points="645.8288,-122 642.8288,-126 621.8288,-126 618.8288,-122 550.1712,-122 550.1712,-86 645.8288,-86 645.8288,-122"/>
<text text-anchor="middle" x="598" y="-99.8" font-family="Times,serif" font-size="14.00" fill="#000000">FormsModule</text>
</g>
<!-- FormsModule&#45;&gt;FormsPageModule -->
<g id="edge3" class="edge">
<title>FormsModule&#45;&gt;FormsPageModule</title>
<path fill="none" stroke="#000000" d="M577.303,-122.1061C577.303,-122.1061 577.303,-140.991 577.303,-140.991"/>
<polygon fill="#000000" stroke="#000000" points="573.803,-140.9909 577.303,-150.991 580.803,-140.991 573.803,-140.9909"/>
</g>
<!-- IonicModule -->
<g id="node5" class="node">
<title>IonicModule</title>
<polygon fill="#8dd3c7" stroke="#000000" points="532.3162,-122 529.3162,-126 508.3162,-126 505.3162,-122 443.6838,-122 443.6838,-86 532.3162,-86 532.3162,-122"/>
<text text-anchor="middle" x="488" y="-99.8" font-family="Times,serif" font-size="14.00" fill="#000000">IonicModule</text>
</g>
<!-- IonicModule&#45;&gt;FormsPageModule -->
<g id="edge4" class="edge">
<title>IonicModule&#45;&gt;FormsPageModule</title>
<path fill="none" stroke="#000000" d="M506.9439,-122.1061C506.9439,-122.1061 506.9439,-140.991 506.9439,-140.991"/>
<polygon fill="#000000" stroke="#000000" points="503.444,-140.9909 506.9439,-150.991 510.444,-140.991 503.444,-140.9909"/>
</g>
<!-- OkodeNgxCustomPaletteModule -->
<g id="node6" class="node">
<title>OkodeNgxCustomPaletteModule</title>
<polygon fill="#8dd3c7" stroke="#000000" points="426.1385,-122 423.1385,-126 402.1385,-126 399.1385,-122 223.8615,-122 223.8615,-86 426.1385,-86 426.1385,-122"/>
<text text-anchor="middle" x="325" y="-99.8" font-family="Times,serif" font-size="14.00" fill="#000000">OkodeNgxCustomPaletteModule</text>
</g>
<!-- OkodeNgxCustomPaletteModule&#45;&gt;FormsPageModule -->
<g id="edge5" class="edge">
<title>OkodeNgxCustomPaletteModule&#45;&gt;FormsPageModule</title>
<path fill="none" stroke="#000000" d="M325,-122.0225C325,-139.3734 325,-163 325,-163 325,-163 471.6947,-163 471.6947,-163"/>
<polygon fill="#000000" stroke="#000000" points="471.6947,-166.5001 481.6947,-163 471.6947,-159.5001 471.6947,-166.5001"/>
</g>
<!-- RouterModule.forChild(args) -->
<g id="node7" class="node">
<title>RouterModule.forChild(args)</title>
<polygon fill="#8dd3c7" stroke="#000000" points="205.7323,-122 202.7323,-126 181.7323,-126 178.7323,-122 24.2677,-122 24.2677,-86 205.7323,-86 205.7323,-122"/>
<text text-anchor="middle" x="115" y="-99.8" font-family="Times,serif" font-size="14.00" fill="#000000">RouterModule.forChild(args)</text>
</g>
<!-- RouterModule.forChild(args)&#45;&gt;FormsPageModule -->
<g id="edge6" class="edge">
<title>RouterModule.forChild(args)&#45;&gt;FormsPageModule</title>
<path fill="none" stroke="#000000" d="M115,-122.2843C115,-143.3211 115,-175 115,-175 115,-175 471.678,-175 471.678,-175"/>
<polygon fill="#000000" stroke="#000000" points="471.6781,-178.5001 481.678,-175 471.678,-171.5001 471.6781,-178.5001"/>
</g>
</g>
</svg>
