<?xml version="1.0" encoding="UTF-8" standalone="no"?>
<!DOCTYPE svg PUBLIC "-//W3C//DTD SVG 1.1//EN"
 "http://www.w3.org/Graphics/SVG/1.1/DTD/svg11.dtd">
<!-- Generated by graphviz version 2.40.1 (20161225.0304)
 -->
<!-- Title: dependencies Pages: 1 -->
<svg width="897pt" height="211pt"
 viewBox="0.00 0.00 897.00 211.00" xmlns="http://www.w3.org/2000/svg" xmlns:xlink="http://www.w3.org/1999/xlink">
<g id="graph0" class="graph" transform="scale(1 1) rotate(0) translate(4 207)">
<title>dependencies</title>
<polygon fill="#ffffff" stroke="transparent" points="-4,4 -4,-207 893,-207 893,4 -4,4"/>
<text text-anchor="start" x="423.5091" y="-42.4" font-family="sans-serif" font-weight="bold" font-size="14.00" fill="#000000">Legend</text>
<polygon fill="#ffffb3" stroke="transparent" points="210.5,-10 210.5,-30 230.5,-30 230.5,-10 210.5,-10"/>
<text text-anchor="start" x="234.129" y="-15.4" font-family="sans-serif" font-size="14.00" fill="#000000"> &#160;Declarations</text>
<polygon fill="#8dd3c7" stroke="transparent" points="323.5,-10 323.5,-30 343.5,-30 343.5,-10 323.5,-10"/>
<text text-anchor="start" x="347.2251" y="-15.4" font-family="sans-serif" font-size="14.00" fill="#000000"> &#160;Module</text>
<polygon fill="#80b1d3" stroke="transparent" points="409.5,-10 409.5,-30 429.5,-30 429.5,-10 409.5,-10"/>
<text text-anchor="start" x="433.2812" y="-15.4" font-family="sans-serif" font-size="14.00" fill="#000000"> &#160;Bootstrap</text>
<polygon fill="#fdb462" stroke="transparent" points="506.5,-10 506.5,-30 526.5,-30 526.5,-10 506.5,-10"/>
<text text-anchor="start" x="530.1732" y="-15.4" font-family="sans-serif" font-size="14.00" fill="#000000"> &#160;Providers</text>
<polygon fill="#fb8072" stroke="transparent" points="602.5,-10 602.5,-30 622.5,-30 622.5,-10 602.5,-10"/>
<text text-anchor="start" x="626.2258" y="-15.4" font-family="sans-serif" font-size="14.00" fill="#000000"> &#160;Exports</text>
<g id="clust1" class="cluster">
<title>cluster_MapsPageModule</title>
<polygon fill="none" stroke="#000000" stroke-dasharray="1,5" points="8,-70 8,-195 881,-195 881,-70 8,-70"/>
</g>
<g id="clust2" class="cluster">
<title>cluster_MapsPageModule_declarations</title>
<polygon fill="none" stroke="#000000" points="783,-78 783,-130 873,-130 873,-78 783,-78"/>
</g>
<g id="clust4" class="cluster">
<title>cluster_MapsPageModule_imports</title>
<polygon fill="none" stroke="#000000" points="16,-78 16,-130 775,-130 775,-78 16,-78"/>
</g>
<!-- MapsPage -->
<g id="node1" class="node">
<title>MapsPage</title>
<polygon fill="#ffffb3" stroke="#000000" points="865.3163,-122 790.6837,-122 790.6837,-86 865.3163,-86 865.3163,-122"/>
<text text-anchor="middle" x="828" y="-99.8" font-family="Times,serif" font-size="14.00" fill="#000000">MapsPage</text>
</g>
<!-- MapsPageModule -->
<g id="node2" class="node">
<title>MapsPageModule</title>
<polygon fill="#8dd3c7" stroke="#000000" points="593.8655,-187 590.8655,-191 569.8655,-191 566.8655,-187 476.1345,-187 476.1345,-151 593.8655,-151 593.8655,-187"/>
<text text-anchor="middle" x="535" y="-164.8" font-family="Times,serif" font-size="14.00" fill="#000000">MapsPageModule</text>
</g>
<!-- MapsPage&#45;&gt;MapsPageModule -->
<g id="edge1" class="edge">
<title>MapsPage&#45;&gt;MapsPageModule</title>
<path fill="none" stroke="#000000" d="M828,-122.2843C828,-143.3211 828,-175 828,-175 828,-175 603.9405,-175 603.9405,-175"/>
<polygon fill="#000000" stroke="#000000" points="603.9405,-171.5001 593.9405,-175 603.9404,-178.5001 603.9405,-171.5001"/>
</g>
<!-- CommonModule -->
<g id="node3" class="node">
<title>CommonModule</title>
<polygon fill="#8dd3c7" stroke="#000000" points="766.6681,-122 763.6681,-126 742.6681,-126 739.6681,-122 655.3319,-122 655.3319,-86 766.6681,-86 766.6681,-122"/>
<text text-anchor="middle" x="711" y="-99.8" font-family="Times,serif" font-size="14.00" fill="#000000">CommonModule</text>
</g>
<!-- CommonModule&#45;&gt;MapsPageModule -->
<g id="edge2" class="edge">
<title>CommonModule&#45;&gt;MapsPageModule</title>
<path fill="none" stroke="#000000" d="M711,-122.0225C711,-139.3734 711,-163 711,-163 711,-163 604.0951,-163 604.0951,-163"/>
<polygon fill="#000000" stroke="#000000" points="604.0951,-159.5001 594.0951,-163 604.095,-166.5001 604.0951,-159.5001"/>
</g>
<!-- FormsModule -->
<g id="node4" class="node">
<title>FormsModule</title>
<polygon fill="#8dd3c7" stroke="#000000" points="637.8288,-122 634.8288,-126 613.8288,-126 610.8288,-122 542.1712,-122 542.1712,-86 637.8288,-86 637.8288,-122"/>
<text text-anchor="middle" x="590" y="-99.8" font-family="Times,serif" font-size="14.00" fill="#000000">FormsModule</text>
</g>
<!-- FormsModule&#45;&gt;MapsPageModule -->
<g id="edge3" class="edge">
<title>FormsModule&#45;&gt;MapsPageModule</title>
<path fill="none" stroke="#000000" d="M568.1343,-122.1061C568.1343,-122.1061 568.1343,-140.991 568.1343,-140.991"/>
<polygon fill="#000000" stroke="#000000" points="564.6344,-140.9909 568.1343,-150.991 571.6344,-140.991 564.6344,-140.9909"/>
</g>
<!-- IonicModule -->
<g id="node5" class="node">
<title>IonicModule</title>
<polygon fill="#8dd3c7" stroke="#000000" points="524.3162,-122 521.3162,-126 500.3162,-126 497.3162,-122 435.6838,-122 435.6838,-86 524.3162,-86 524.3162,-122"/>
<text text-anchor="middle" x="480" y="-99.8" font-family="Times,serif" font-size="14.00" fill="#000000">IonicModule</text>
</g>
<!-- IonicModule&#45;&gt;MapsPageModule -->
<g id="edge4" class="edge">
<title>IonicModule&#45;&gt;MapsPageModule</title>
<path fill="none" stroke="#000000" d="M500.1126,-122.1061C500.1126,-122.1061 500.1126,-140.991 500.1126,-140.991"/>
<polygon fill="#000000" stroke="#000000" points="496.6126,-140.9909 500.1126,-150.991 503.6126,-140.991 496.6126,-140.9909"/>
</g>
<!-- RouterModule.forChild(args) -->
<g id="node6" class="node">
<title>RouterModule.forChild(args)</title>
<polygon fill="#8dd3c7" stroke="#000000" points="417.7323,-122 414.7323,-126 393.7323,-126 390.7323,-122 236.2677,-122 236.2677,-86 417.7323,-86 417.7323,-122"/>
<text text-anchor="middle" x="327" y="-99.8" font-family="Times,serif" font-size="14.00" fill="#000000">RouterModule.forChild(args)</text>
</g>
<!-- RouterModule.forChild(args)&#45;&gt;MapsPageModule -->
<g id="edge5" class="edge">
<title>RouterModule.forChild(args)&#45;&gt;MapsPageModule</title>
<path fill="none" stroke="#000000" d="M327,-122.0225C327,-139.3734 327,-163 327,-163 327,-163 465.9519,-163 465.9519,-163"/>
<polygon fill="#000000" stroke="#000000" points="465.952,-166.5001 475.9519,-163 465.9519,-159.5001 465.952,-166.5001"/>
</g>
<!-- AgmCoreModule.forRoot(args) -->
<g id="node7" class="node">
<title>AgmCoreModule.forRoot(args)</title>
<polygon fill="#8dd3c7" stroke="#000000" points="218.4487,-122 215.4487,-126 194.4487,-126 191.4487,-122 23.5513,-122 23.5513,-86 218.4487,-86 218.4487,-122"/>
<text text-anchor="middle" x="121" y="-99.8" font-family="Times,serif" font-size="14.00" fill="#000000">AgmCoreModule.forRoot(args)</text>
</g>
<!-- AgmCoreModule.forRoot(args)&#45;&gt;MapsPageModule -->
<g id="edge6" class="edge">
<title>AgmCoreModule.forRoot(args)&#45;&gt;MapsPageModule</title>
<path fill="none" stroke="#000000" d="M121,-122.2843C121,-143.3211 121,-175 121,-175 121,-175 466.1236,-175 466.1236,-175"/>
<polygon fill="#000000" stroke="#000000" points="466.1236,-178.5001 476.1236,-175 466.1235,-171.5001 466.1236,-178.5001"/>
</g>
</g>
</svg>
