<?xml version="1.0" encoding="UTF-8" standalone="no"?>
<!DOCTYPE svg PUBLIC "-//W3C//DTD SVG 1.1//EN"
 "http://www.w3.org/Graphics/SVG/1.1/DTD/svg11.dtd">
<!-- Generated by graphviz version 2.40.1 (20161225.0304)
 -->
<!-- Title: dependencies Pages: 1 -->
<svg width="923pt" height="211pt"
 viewBox="0.00 0.00 923.00 211.00" xmlns="http://www.w3.org/2000/svg" xmlns:xlink="http://www.w3.org/1999/xlink">
<g id="graph0" class="graph" transform="scale(1 1) rotate(0) translate(4 207)">
<title>dependencies</title>
<polygon fill="#ffffff" stroke="transparent" points="-4,4 -4,-207 919,-207 919,4 -4,4"/>
<text text-anchor="start" x="436.5091" y="-42.4" font-family="sans-serif" font-weight="bold" font-size="14.00" fill="#000000">Legend</text>
<polygon fill="#ffffb3" stroke="transparent" points="223.5,-10 223.5,-30 243.5,-30 243.5,-10 223.5,-10"/>
<text text-anchor="start" x="247.129" y="-15.4" font-family="sans-serif" font-size="14.00" fill="#000000"> &#160;Declarations</text>
<polygon fill="#8dd3c7" stroke="transparent" points="336.5,-10 336.5,-30 356.5,-30 356.5,-10 336.5,-10"/>
<text text-anchor="start" x="360.2251" y="-15.4" font-family="sans-serif" font-size="14.00" fill="#000000"> &#160;Module</text>
<polygon fill="#80b1d3" stroke="transparent" points="422.5,-10 422.5,-30 442.5,-30 442.5,-10 422.5,-10"/>
<text text-anchor="start" x="446.2812" y="-15.4" font-family="sans-serif" font-size="14.00" fill="#000000"> &#160;Bootstrap</text>
<polygon fill="#fdb462" stroke="transparent" points="519.5,-10 519.5,-30 539.5,-30 539.5,-10 519.5,-10"/>
<text text-anchor="start" x="543.1732" y="-15.4" font-family="sans-serif" font-size="14.00" fill="#000000"> &#160;Providers</text>
<polygon fill="#fb8072" stroke="transparent" points="615.5,-10 615.5,-30 635.5,-30 635.5,-10 615.5,-10"/>
<text text-anchor="start" x="639.2258" y="-15.4" font-family="sans-serif" font-size="14.00" fill="#000000"> &#160;Exports</text>
<g id="clust1" class="cluster">
<title>cluster_ToolbarsPageModule</title>
<polygon fill="none" stroke="#000000" stroke-dasharray="1,5" points="8,-70 8,-195 907,-195 907,-70 8,-70"/>
</g>
<g id="clust2" class="cluster">
<title>cluster_ToolbarsPageModule_declarations</title>
<polygon fill="none" stroke="#000000" points="791,-78 791,-130 899,-130 899,-78 791,-78"/>
</g>
<g id="clust4" class="cluster">
<title>cluster_ToolbarsPageModule_imports</title>
<polygon fill="none" stroke="#000000" points="16,-78 16,-130 783,-130 783,-78 16,-78"/>
</g>
<!-- ToolbarsPage -->
<g id="node1" class="node">
<title>ToolbarsPage</title>
<polygon fill="#ffffb3" stroke="#000000" points="891.4748,-122 798.5252,-122 798.5252,-86 891.4748,-86 891.4748,-122"/>
<text text-anchor="middle" x="845" y="-99.8" font-family="Times,serif" font-size="14.00" fill="#000000">ToolbarsPage</text>
</g>
<!-- ToolbarsPageModule -->
<g id="node2" class="node">
<title>ToolbarsPageModule</title>
<polygon fill="#8dd3c7" stroke="#000000" points="611.0254,-187 608.0254,-191 587.0254,-191 584.0254,-187 474.9746,-187 474.9746,-151 611.0254,-151 611.0254,-187"/>
<text text-anchor="middle" x="543" y="-164.8" font-family="Times,serif" font-size="14.00" fill="#000000">ToolbarsPageModule</text>
</g>
<!-- ToolbarsPage&#45;&gt;ToolbarsPageModule -->
<g id="edge1" class="edge">
<title>ToolbarsPage&#45;&gt;ToolbarsPageModule</title>
<path fill="none" stroke="#000000" d="M845,-122.2843C845,-143.3211 845,-175 845,-175 845,-175 621.1513,-175 621.1513,-175"/>
<polygon fill="#000000" stroke="#000000" points="621.1513,-171.5001 611.1513,-175 621.1512,-178.5001 621.1513,-171.5001"/>
</g>
<!-- CommonModule -->
<g id="node3" class="node">
<title>CommonModule</title>
<polygon fill="#8dd3c7" stroke="#000000" points="774.6681,-122 771.6681,-126 750.6681,-126 747.6681,-122 663.3319,-122 663.3319,-86 774.6681,-86 774.6681,-122"/>
<text text-anchor="middle" x="719" y="-99.8" font-family="Times,serif" font-size="14.00" fill="#000000">CommonModule</text>
</g>
<!-- CommonModule&#45;&gt;ToolbarsPageModule -->
<g id="edge2" class="edge">
<title>CommonModule&#45;&gt;ToolbarsPageModule</title>
<path fill="none" stroke="#000000" d="M719,-122.0225C719,-139.3734 719,-163 719,-163 719,-163 621.0462,-163 621.0462,-163"/>
<polygon fill="#000000" stroke="#000000" points="621.0462,-159.5001 611.0462,-163 621.0462,-166.5001 621.0462,-159.5001"/>
</g>
<!-- FormsModule -->
<g id="node4" class="node">
<title>FormsModule</title>
<polygon fill="#8dd3c7" stroke="#000000" points="645.8288,-122 642.8288,-126 621.8288,-126 618.8288,-122 550.1712,-122 550.1712,-86 645.8288,-86 645.8288,-122"/>
<text text-anchor="middle" x="598" y="-99.8" font-family="Times,serif" font-size="14.00" fill="#000000">FormsModule</text>
</g>
<!-- FormsModule&#45;&gt;ToolbarsPageModule -->
<g id="edge3" class="edge">
<title>FormsModule&#45;&gt;ToolbarsPageModule</title>
<path fill="none" stroke="#000000" d="M580.7991,-122.1061C580.7991,-122.1061 580.7991,-140.991 580.7991,-140.991"/>
<polygon fill="#000000" stroke="#000000" points="577.2992,-140.9909 580.7991,-150.991 584.2992,-140.991 577.2992,-140.9909"/>
</g>
<!-- IonicModule -->
<g id="node5" class="node">
<title>IonicModule</title>
<polygon fill="#8dd3c7" stroke="#000000" points="532.3162,-122 529.3162,-126 508.3162,-126 505.3162,-122 443.6838,-122 443.6838,-86 532.3162,-86 532.3162,-122"/>
<text text-anchor="middle" x="488" y="-99.8" font-family="Times,serif" font-size="14.00" fill="#000000">IonicModule</text>
</g>
<!-- IonicModule&#45;&gt;ToolbarsPageModule -->
<g id="edge4" class="edge">
<title>IonicModule&#45;&gt;ToolbarsPageModule</title>
<path fill="none" stroke="#000000" d="M503.4478,-122.1061C503.4478,-122.1061 503.4478,-140.991 503.4478,-140.991"/>
<polygon fill="#000000" stroke="#000000" points="499.9478,-140.9909 503.4478,-150.991 506.9478,-140.991 499.9478,-140.9909"/>
</g>
<!-- OkodeNgxCustomPaletteModule -->
<g id="node6" class="node">
<title>OkodeNgxCustomPaletteModule</title>
<polygon fill="#8dd3c7" stroke="#000000" points="426.1385,-122 423.1385,-126 402.1385,-126 399.1385,-122 223.8615,-122 223.8615,-86 426.1385,-86 426.1385,-122"/>
<text text-anchor="middle" x="325" y="-99.8" font-family="Times,serif" font-size="14.00" fill="#000000">OkodeNgxCustomPaletteModule</text>
</g>
<!-- OkodeNgxCustomPaletteModule&#45;&gt;ToolbarsPageModule -->
<g id="edge5" class="edge">
<title>OkodeNgxCustomPaletteModule&#45;&gt;ToolbarsPageModule</title>
<path fill="none" stroke="#000000" d="M325,-122.0225C325,-139.3734 325,-163 325,-163 325,-163 464.9202,-163 464.9202,-163"/>
<polygon fill="#000000" stroke="#000000" points="464.9202,-166.5001 474.9202,-163 464.9201,-159.5001 464.9202,-166.5001"/>
</g>
<!-- RouterModule.forChild(args) -->
<g id="node7" class="node">
<title>RouterModule.forChild(args)</title>
<polygon fill="#8dd3c7" stroke="#000000" points="205.7323,-122 202.7323,-126 181.7323,-126 178.7323,-122 24.2677,-122 24.2677,-86 205.7323,-86 205.7323,-122"/>
<text text-anchor="middle" x="115" y="-99.8" font-family="Times,serif" font-size="14.00" fill="#000000">RouterModule.forChild(args)</text>
</g>
<!-- RouterModule.forChild(args)&#45;&gt;ToolbarsPageModule -->
<g id="edge6" class="edge">
<title>RouterModule.forChild(args)&#45;&gt;ToolbarsPageModule</title>
<path fill="none" stroke="#000000" d="M115,-122.2843C115,-143.3211 115,-175 115,-175 115,-175 464.7089,-175 464.7089,-175"/>
<polygon fill="#000000" stroke="#000000" points="464.7089,-178.5001 474.7089,-175 464.7088,-171.5001 464.7089,-178.5001"/>
</g>
</g>
</svg>
