<?xml version="1.0" encoding="UTF-8" standalone="no"?>
<!DOCTYPE svg PUBLIC "-//W3C//DTD SVG 1.1//EN"
 "http://www.w3.org/Graphics/SVG/1.1/DTD/svg11.dtd">
<!-- Generated by graphviz version 2.40.1 (20161225.0304)
 -->
<!-- Title: dependencies Pages: 1 -->
<svg width="855pt" height="211pt"
 viewBox="0.00 0.00 855.00 211.00" xmlns="http://www.w3.org/2000/svg" xmlns:xlink="http://www.w3.org/1999/xlink">
<g id="graph0" class="graph" transform="scale(1 1) rotate(0) translate(4 207)">
<title>dependencies</title>
<polygon fill="#ffffff" stroke="transparent" points="-4,4 -4,-207 851,-207 851,4 -4,4"/>
<text text-anchor="start" x="402.5091" y="-42.4" font-family="sans-serif" font-weight="bold" font-size="14.00" fill="#000000">Legend</text>
<polygon fill="#ffffb3" stroke="transparent" points="189.5,-10 189.5,-30 209.5,-30 209.5,-10 189.5,-10"/>
<text text-anchor="start" x="213.129" y="-15.4" font-family="sans-serif" font-size="14.00" fill="#000000"> &#160;Declarations</text>
<polygon fill="#8dd3c7" stroke="transparent" points="302.5,-10 302.5,-30 322.5,-30 322.5,-10 302.5,-10"/>
<text text-anchor="start" x="326.2251" y="-15.4" font-family="sans-serif" font-size="14.00" fill="#000000"> &#160;Module</text>
<polygon fill="#80b1d3" stroke="transparent" points="388.5,-10 388.5,-30 408.5,-30 408.5,-10 388.5,-10"/>
<text text-anchor="start" x="412.2812" y="-15.4" font-family="sans-serif" font-size="14.00" fill="#000000"> &#160;Bootstrap</text>
<polygon fill="#fdb462" stroke="transparent" points="485.5,-10 485.5,-30 505.5,-30 505.5,-10 485.5,-10"/>
<text text-anchor="start" x="509.1732" y="-15.4" font-family="sans-serif" font-size="14.00" fill="#000000"> &#160;Providers</text>
<polygon fill="#fb8072" stroke="transparent" points="581.5,-10 581.5,-30 601.5,-30 601.5,-10 581.5,-10"/>
<text text-anchor="start" x="605.2258" y="-15.4" font-family="sans-serif" font-size="14.00" fill="#000000"> &#160;Exports</text>
<g id="clust1" class="cluster">
<title>cluster_CalendarPageModule</title>
<polygon fill="none" stroke="#000000" stroke-dasharray="1,5" points="8,-70 8,-195 839,-195 839,-70 8,-70"/>
</g>
<g id="clust2" class="cluster">
<title>cluster_CalendarPageModule_declarations</title>
<polygon fill="none" stroke="#000000" points="721,-78 721,-130 831,-130 831,-78 721,-78"/>
</g>
<g id="clust4" class="cluster">
<title>cluster_CalendarPageModule_imports</title>
<polygon fill="none" stroke="#000000" points="16,-78 16,-130 713,-130 713,-78 16,-78"/>
</g>
<!-- CalendarPage -->
<g id="node1" class="node">
<title>CalendarPage</title>
<polygon fill="#ffffb3" stroke="#000000" points="822.7438,-122 729.2562,-122 729.2562,-86 822.7438,-86 822.7438,-122"/>
<text text-anchor="middle" x="776" y="-99.8" font-family="Times,serif" font-size="14.00" fill="#000000">CalendarPage</text>
</g>
<!-- CalendarPageModule -->
<g id="node2" class="node">
<title>CalendarPageModule</title>
<polygon fill="#8dd3c7" stroke="#000000" points="541.7935,-187 538.7935,-191 517.7935,-191 514.7935,-187 404.2065,-187 404.2065,-151 541.7935,-151 541.7935,-187"/>
<text text-anchor="middle" x="473" y="-164.8" font-family="Times,serif" font-size="14.00" fill="#000000">CalendarPageModule</text>
</g>
<!-- CalendarPage&#45;&gt;CalendarPageModule -->
<g id="edge1" class="edge">
<title>CalendarPage&#45;&gt;CalendarPageModule</title>
<path fill="none" stroke="#000000" d="M776,-122.2843C776,-143.3211 776,-175 776,-175 776,-175 551.7554,-175 551.7554,-175"/>
<polygon fill="#000000" stroke="#000000" points="551.7554,-171.5001 541.7554,-175 551.7554,-178.5001 551.7554,-171.5001"/>
</g>
<!-- CommonModule -->
<g id="node3" class="node">
<title>CommonModule</title>
<polygon fill="#8dd3c7" stroke="#000000" points="704.6681,-122 701.6681,-126 680.6681,-126 677.6681,-122 593.3319,-122 593.3319,-86 704.6681,-86 704.6681,-122"/>
<text text-anchor="middle" x="649" y="-99.8" font-family="Times,serif" font-size="14.00" fill="#000000">CommonModule</text>
</g>
<!-- CommonModule&#45;&gt;CalendarPageModule -->
<g id="edge2" class="edge">
<title>CommonModule&#45;&gt;CalendarPageModule</title>
<path fill="none" stroke="#000000" d="M649,-122.0225C649,-139.3734 649,-163 649,-163 649,-163 551.8024,-163 551.8024,-163"/>
<polygon fill="#000000" stroke="#000000" points="551.8024,-159.5001 541.8024,-163 551.8023,-166.5001 551.8024,-159.5001"/>
</g>
<!-- FormsModule -->
<g id="node4" class="node">
<title>FormsModule</title>
<polygon fill="#8dd3c7" stroke="#000000" points="575.8288,-122 572.8288,-126 551.8288,-126 548.8288,-122 480.1712,-122 480.1712,-86 575.8288,-86 575.8288,-122"/>
<text text-anchor="middle" x="528" y="-99.8" font-family="Times,serif" font-size="14.00" fill="#000000">FormsModule</text>
</g>
<!-- FormsModule&#45;&gt;CalendarPageModule -->
<g id="edge3" class="edge">
<title>FormsModule&#45;&gt;CalendarPageModule</title>
<path fill="none" stroke="#000000" d="M510.9913,-122.1061C510.9913,-122.1061 510.9913,-140.991 510.9913,-140.991"/>
<polygon fill="#000000" stroke="#000000" points="507.4913,-140.9909 510.9913,-150.991 514.4913,-140.991 507.4913,-140.9909"/>
</g>
<!-- IonicModule -->
<g id="node5" class="node">
<title>IonicModule</title>
<polygon fill="#8dd3c7" stroke="#000000" points="462.3162,-122 459.3162,-126 438.3162,-126 435.3162,-122 373.6838,-122 373.6838,-86 462.3162,-86 462.3162,-122"/>
<text text-anchor="middle" x="418" y="-99.8" font-family="Times,serif" font-size="14.00" fill="#000000">IonicModule</text>
</g>
<!-- IonicModule&#45;&gt;CalendarPageModule -->
<g id="edge4" class="edge">
<title>IonicModule&#45;&gt;CalendarPageModule</title>
<path fill="none" stroke="#000000" d="M433.2556,-122.1061C433.2556,-122.1061 433.2556,-140.991 433.2556,-140.991"/>
<polygon fill="#000000" stroke="#000000" points="429.7557,-140.9909 433.2556,-150.991 436.7557,-140.991 429.7557,-140.9909"/>
</g>
<!-- RouterModule.forChild(args) -->
<g id="node6" class="node">
<title>RouterModule.forChild(args)</title>
<polygon fill="#8dd3c7" stroke="#000000" points="355.7323,-122 352.7323,-126 331.7323,-126 328.7323,-122 174.2677,-122 174.2677,-86 355.7323,-86 355.7323,-122"/>
<text text-anchor="middle" x="265" y="-99.8" font-family="Times,serif" font-size="14.00" fill="#000000">RouterModule.forChild(args)</text>
</g>
<!-- RouterModule.forChild(args)&#45;&gt;CalendarPageModule -->
<g id="edge5" class="edge">
<title>RouterModule.forChild(args)&#45;&gt;CalendarPageModule</title>
<path fill="none" stroke="#000000" d="M265,-122.0225C265,-139.3734 265,-163 265,-163 265,-163 394.3166,-163 394.3166,-163"/>
<polygon fill="#000000" stroke="#000000" points="394.3166,-166.5001 404.3166,-163 394.3165,-159.5001 394.3166,-166.5001"/>
</g>
<!-- FullCalendarModule -->
<g id="node7" class="node">
<title>FullCalendarModule</title>
<polygon fill="#8dd3c7" stroke="#000000" points="156.1457,-122 153.1457,-126 132.1457,-126 129.1457,-122 23.8543,-122 23.8543,-86 156.1457,-86 156.1457,-122"/>
<text text-anchor="middle" x="90" y="-99.8" font-family="Times,serif" font-size="14.00" fill="#000000">FullCalendarModule</text>
</g>
<!-- FullCalendarModule&#45;&gt;CalendarPageModule -->
<g id="edge6" class="edge">
<title>FullCalendarModule&#45;&gt;CalendarPageModule</title>
<path fill="none" stroke="#000000" d="M90,-122.2843C90,-143.3211 90,-175 90,-175 90,-175 394.0849,-175 394.0849,-175"/>
<polygon fill="#000000" stroke="#000000" points="394.085,-178.5001 404.0849,-175 394.0849,-171.5001 394.085,-178.5001"/>
</g>
</g>
</svg>
