<?xml version="1.0" encoding="UTF-8" standalone="no"?>
<!DOCTYPE svg PUBLIC "-//W3C//DTD SVG 1.1//EN"
 "http://www.w3.org/Graphics/SVG/1.1/DTD/svg11.dtd">
<!-- Generated by graphviz version 2.40.1 (20161225.0304)
 -->
<!-- Title: dependencies Pages: 1 -->
<svg width="811pt" height="211pt"
 viewBox="0.00 0.00 811.00 211.00" xmlns="http://www.w3.org/2000/svg" xmlns:xlink="http://www.w3.org/1999/xlink">
<g id="graph0" class="graph" transform="scale(1 1) rotate(0) translate(4 207)">
<title>dependencies</title>
<polygon fill="#ffffff" stroke="transparent" points="-4,4 -4,-207 807,-207 807,4 -4,4"/>
<text text-anchor="start" x="380.5091" y="-42.4" font-family="sans-serif" font-weight="bold" font-size="14.00" fill="#000000">Legend</text>
<polygon fill="#ffffb3" stroke="transparent" points="167.5,-10 167.5,-30 187.5,-30 187.5,-10 167.5,-10"/>
<text text-anchor="start" x="191.129" y="-15.4" font-family="sans-serif" font-size="14.00" fill="#000000"> &#160;Declarations</text>
<polygon fill="#8dd3c7" stroke="transparent" points="280.5,-10 280.5,-30 300.5,-30 300.5,-10 280.5,-10"/>
<text text-anchor="start" x="304.2251" y="-15.4" font-family="sans-serif" font-size="14.00" fill="#000000"> &#160;Module</text>
<polygon fill="#80b1d3" stroke="transparent" points="366.5,-10 366.5,-30 386.5,-30 386.5,-10 366.5,-10"/>
<text text-anchor="start" x="390.2812" y="-15.4" font-family="sans-serif" font-size="14.00" fill="#000000"> &#160;Bootstrap</text>
<polygon fill="#fdb462" stroke="transparent" points="463.5,-10 463.5,-30 483.5,-30 483.5,-10 463.5,-10"/>
<text text-anchor="start" x="487.1732" y="-15.4" font-family="sans-serif" font-size="14.00" fill="#000000"> &#160;Providers</text>
<polygon fill="#fb8072" stroke="transparent" points="559.5,-10 559.5,-30 579.5,-30 579.5,-10 559.5,-10"/>
<text text-anchor="start" x="583.2258" y="-15.4" font-family="sans-serif" font-size="14.00" fill="#000000"> &#160;Exports</text>
<g id="clust1" class="cluster">
<title>cluster_PdfPageModule</title>
<polygon fill="none" stroke="#000000" stroke-dasharray="1,5" points="8,-70 8,-195 795,-195 795,-70 8,-70"/>
</g>
<g id="clust2" class="cluster">
<title>cluster_PdfPageModule_declarations</title>
<polygon fill="none" stroke="#000000" points="709,-78 709,-130 787,-130 787,-78 709,-78"/>
</g>
<g id="clust4" class="cluster">
<title>cluster_PdfPageModule_imports</title>
<polygon fill="none" stroke="#000000" points="16,-78 16,-130 701,-130 701,-78 16,-78"/>
</g>
<!-- PdfPage -->
<g id="node1" class="node">
<title>PdfPage</title>
<polygon fill="#ffffb3" stroke="#000000" points="779.1559,-122 716.8441,-122 716.8441,-86 779.1559,-86 779.1559,-122"/>
<text text-anchor="middle" x="748" y="-99.8" font-family="Times,serif" font-size="14.00" fill="#000000">PdfPage</text>
</g>
<!-- PdfPageModule -->
<g id="node2" class="node">
<title>PdfPageModule</title>
<polygon fill="#8dd3c7" stroke="#000000" points="514.205,-187 511.205,-191 490.205,-191 487.205,-187 407.795,-187 407.795,-151 514.205,-151 514.205,-187"/>
<text text-anchor="middle" x="461" y="-164.8" font-family="Times,serif" font-size="14.00" fill="#000000">PdfPageModule</text>
</g>
<!-- PdfPage&#45;&gt;PdfPageModule -->
<g id="edge1" class="edge">
<title>PdfPage&#45;&gt;PdfPageModule</title>
<path fill="none" stroke="#000000" d="M748,-122.2843C748,-143.3211 748,-175 748,-175 748,-175 524.3099,-175 524.3099,-175"/>
<polygon fill="#000000" stroke="#000000" points="524.3099,-171.5001 514.3099,-175 524.3099,-178.5001 524.3099,-171.5001"/>
</g>
<!-- CommonModule -->
<g id="node3" class="node">
<title>CommonModule</title>
<polygon fill="#8dd3c7" stroke="#000000" points="692.6681,-122 689.6681,-126 668.6681,-126 665.6681,-122 581.3319,-122 581.3319,-86 692.6681,-86 692.6681,-122"/>
<text text-anchor="middle" x="637" y="-99.8" font-family="Times,serif" font-size="14.00" fill="#000000">CommonModule</text>
</g>
<!-- CommonModule&#45;&gt;PdfPageModule -->
<g id="edge2" class="edge">
<title>CommonModule&#45;&gt;PdfPageModule</title>
<path fill="none" stroke="#000000" d="M637,-122.0225C637,-139.3734 637,-163 637,-163 637,-163 524.2834,-163 524.2834,-163"/>
<polygon fill="#000000" stroke="#000000" points="524.2835,-159.5001 514.2834,-163 524.2834,-166.5001 524.2835,-159.5001"/>
</g>
<!-- FormsModule -->
<g id="node4" class="node">
<title>FormsModule</title>
<polygon fill="#8dd3c7" stroke="#000000" points="563.8288,-122 560.8288,-126 539.8288,-126 536.8288,-122 468.1712,-122 468.1712,-86 563.8288,-86 563.8288,-122"/>
<text text-anchor="middle" x="516" y="-99.8" font-family="Times,serif" font-size="14.00" fill="#000000">FormsModule</text>
</g>
<!-- FormsModule&#45;&gt;PdfPageModule -->
<g id="edge3" class="edge">
<title>FormsModule&#45;&gt;PdfPageModule</title>
<path fill="none" stroke="#000000" d="M491.2192,-122.1061C491.2192,-122.1061 491.2192,-140.991 491.2192,-140.991"/>
<polygon fill="#000000" stroke="#000000" points="487.7192,-140.9909 491.2192,-150.991 494.7192,-140.991 487.7192,-140.9909"/>
</g>
<!-- IonicModule -->
<g id="node5" class="node">
<title>IonicModule</title>
<polygon fill="#8dd3c7" stroke="#000000" points="450.3162,-122 447.3162,-126 426.3162,-126 423.3162,-122 361.6838,-122 361.6838,-86 450.3162,-86 450.3162,-122"/>
<text text-anchor="middle" x="406" y="-99.8" font-family="Times,serif" font-size="14.00" fill="#000000">IonicModule</text>
</g>
<!-- IonicModule&#45;&gt;PdfPageModule -->
<g id="edge4" class="edge">
<title>IonicModule&#45;&gt;PdfPageModule</title>
<path fill="none" stroke="#000000" d="M429.0277,-122.1061C429.0277,-122.1061 429.0277,-140.991 429.0277,-140.991"/>
<polygon fill="#000000" stroke="#000000" points="425.5278,-140.9909 429.0277,-150.991 432.5278,-140.991 425.5278,-140.9909"/>
</g>
<!-- RouterModule.forChild(args) -->
<g id="node6" class="node">
<title>RouterModule.forChild(args)</title>
<polygon fill="#8dd3c7" stroke="#000000" points="343.7323,-122 340.7323,-126 319.7323,-126 316.7323,-122 162.2677,-122 162.2677,-86 343.7323,-86 343.7323,-122"/>
<text text-anchor="middle" x="253" y="-99.8" font-family="Times,serif" font-size="14.00" fill="#000000">RouterModule.forChild(args)</text>
</g>
<!-- RouterModule.forChild(args)&#45;&gt;PdfPageModule -->
<g id="edge5" class="edge">
<title>RouterModule.forChild(args)&#45;&gt;PdfPageModule</title>
<path fill="none" stroke="#000000" d="M253,-122.0225C253,-139.3734 253,-163 253,-163 253,-163 397.7049,-163 397.7049,-163"/>
<polygon fill="#000000" stroke="#000000" points="397.705,-166.5001 407.7049,-163 397.7049,-159.5001 397.705,-166.5001"/>
</g>
<!-- PdfViewerModule -->
<g id="node7" class="node">
<title>PdfViewerModule</title>
<polygon fill="#8dd3c7" stroke="#000000" points="144.1867,-122 141.1867,-126 120.1867,-126 117.1867,-122 23.8133,-122 23.8133,-86 144.1867,-86 144.1867,-122"/>
<text text-anchor="middle" x="84" y="-99.8" font-family="Times,serif" font-size="14.00" fill="#000000">PdfViewerModule</text>
</g>
<!-- PdfViewerModule&#45;&gt;PdfPageModule -->
<g id="edge6" class="edge">
<title>PdfViewerModule&#45;&gt;PdfPageModule</title>
<path fill="none" stroke="#000000" d="M84,-122.2843C84,-143.3211 84,-175 84,-175 84,-175 397.7847,-175 397.7847,-175"/>
<polygon fill="#000000" stroke="#000000" points="397.7847,-178.5001 407.7847,-175 397.7847,-171.5001 397.7847,-178.5001"/>
</g>
</g>
</svg>
