<?xml version="1.0" encoding="UTF-8" standalone="no"?>
<!DOCTYPE svg PUBLIC "-//W3C//DTD SVG 1.1//EN"
 "http://www.w3.org/Graphics/SVG/1.1/DTD/svg11.dtd">
<!-- Generated by graphviz version 2.40.1 (20161225.0304)
 -->
<!-- Title: dependencies Pages: 1 -->
<svg width="1990pt" height="284pt"
 viewBox="0.00 0.00 1990.00 284.00" xmlns="http://www.w3.org/2000/svg" xmlns:xlink="http://www.w3.org/1999/xlink">
<g id="graph0" class="graph" transform="scale(1 1) rotate(0) translate(4 280)">
<title>dependencies</title>
<polygon fill="#ffffff" stroke="transparent" points="-4,4 -4,-280 1986,-280 1986,4 -4,4"/>
<text text-anchor="start" x="970.0091" y="-42.4" font-family="sans-serif" font-weight="bold" font-size="14.00" fill="#000000">Legend</text>
<polygon fill="#ffffb3" stroke="transparent" points="757,-10 757,-30 777,-30 777,-10 757,-10"/>
<text text-anchor="start" x="780.629" y="-15.4" font-family="sans-serif" font-size="14.00" fill="#000000"> &#160;Declarations</text>
<polygon fill="#8dd3c7" stroke="transparent" points="870,-10 870,-30 890,-30 890,-10 870,-10"/>
<text text-anchor="start" x="893.7251" y="-15.4" font-family="sans-serif" font-size="14.00" fill="#000000"> &#160;Module</text>
<polygon fill="#80b1d3" stroke="transparent" points="956,-10 956,-30 976,-30 976,-10 956,-10"/>
<text text-anchor="start" x="979.7812" y="-15.4" font-family="sans-serif" font-size="14.00" fill="#000000"> &#160;Bootstrap</text>
<polygon fill="#fdb462" stroke="transparent" points="1053,-10 1053,-30 1073,-30 1073,-10 1053,-10"/>
<text text-anchor="start" x="1076.6732" y="-15.4" font-family="sans-serif" font-size="14.00" fill="#000000"> &#160;Providers</text>
<polygon fill="#fb8072" stroke="transparent" points="1149,-10 1149,-30 1169,-30 1169,-10 1149,-10"/>
<text text-anchor="start" x="1172.7258" y="-15.4" font-family="sans-serif" font-size="14.00" fill="#000000"> &#160;Exports</text>
<g id="clust1" class="cluster">
<title>cluster_AppModule</title>
<polygon fill="none" stroke="#000000" stroke-dasharray="1,5" points="8,-70 8,-268 1974,-268 1974,-70 8,-70"/>
</g>
<g id="clust2" class="cluster">
<title>cluster_AppModule_declarations</title>
<polygon fill="none" stroke="#000000" points="1844,-78 1844,-130 1966,-130 1966,-78 1844,-78"/>
</g>
<g id="clust4" class="cluster">
<title>cluster_AppModule_imports</title>
<polygon fill="none" stroke="#000000" points="814,-78 814,-130 1836,-130 1836,-78 814,-78"/>
</g>
<g id="clust6" class="cluster">
<title>cluster_AppModule_bootstrap</title>
<polygon fill="none" stroke="#000000" points="1160,-208 1160,-260 1284,-260 1284,-208 1160,-208"/>
</g>
<g id="clust7" class="cluster">
<title>cluster_AppModule_providers</title>
<polygon fill="none" stroke="#000000" points="16,-78 16,-130 806,-130 806,-78 16,-78"/>
</g>
<!-- AppComponent -->
<g id="node1" class="node">
<title>AppComponent</title>
<polygon fill="#ffffb3" stroke="#000000" points="1957.9399,-122 1852.0601,-122 1852.0601,-86 1957.9399,-86 1957.9399,-122"/>
<text text-anchor="middle" x="1905" y="-99.8" font-family="Times,serif" font-size="14.00" fill="#000000">AppComponent</text>
</g>
<!-- AppModule -->
<g id="node2" class="node">
<title>AppModule</title>
<polygon fill="#8dd3c7" stroke="#000000" points="1263.6571,-187 1260.6571,-191 1239.6571,-191 1236.6571,-187 1180.3429,-187 1180.3429,-151 1263.6571,-151 1263.6571,-187"/>
<text text-anchor="middle" x="1222" y="-164.8" font-family="Times,serif" font-size="14.00" fill="#000000">AppModule</text>
</g>
<!-- AppComponent&#45;&gt;AppModule -->
<g id="edge1" class="edge">
<title>AppComponent&#45;&gt;AppModule</title>
<path fill="none" stroke="#000000" d="M1905,-122.0109C1905,-144.4852 1905,-180 1905,-180 1905,-180 1273.6966,-180 1273.6966,-180"/>
<polygon fill="#000000" stroke="#000000" points="1273.6966,-176.5001 1263.6966,-180 1273.6965,-183.5001 1273.6966,-176.5001"/>
</g>
<!-- AppComponent  -->
<g id="node9" class="node">
<title>AppComponent </title>
<polygon fill="#80b1d3" stroke="#000000" points="1276.439,-252 1167.561,-252 1167.561,-216 1276.439,-216 1276.439,-252"/>
<text text-anchor="middle" x="1222" y="-229.8" font-family="Times,serif" font-size="14.00" fill="#000000">AppComponent </text>
</g>
<!-- AppModule&#45;&gt;AppComponent  -->
<g id="edge8" class="edge">
<title>AppModule&#45;&gt;AppComponent </title>
<path fill="none" stroke="#000000" stroke-dasharray="1,5" d="M1222,-187.1061C1222,-187.1061 1222,-205.991 1222,-205.991"/>
<polygon fill="#000000" stroke="#000000" points="1218.5001,-205.9909 1222,-215.991 1225.5001,-205.991 1218.5001,-205.9909"/>
</g>
<!-- BrowserModule -->
<g id="node3" class="node">
<title>BrowserModule</title>
<polygon fill="#8dd3c7" stroke="#000000" points="1828.4734,-122 1825.4734,-126 1804.4734,-126 1801.4734,-122 1721.5266,-122 1721.5266,-86 1828.4734,-86 1828.4734,-122"/>
<text text-anchor="middle" x="1775" y="-99.8" font-family="Times,serif" font-size="14.00" fill="#000000">BrowserModule</text>
</g>
<!-- BrowserModule&#45;&gt;AppModule -->
<g id="edge2" class="edge">
<title>BrowserModule&#45;&gt;AppModule</title>
<path fill="none" stroke="#000000" d="M1775,-122.1289C1775,-142.5724 1775,-173 1775,-173 1775,-173 1274.0188,-173 1274.0188,-173"/>
<polygon fill="#000000" stroke="#000000" points="1274.0188,-169.5001 1264.0188,-173 1274.0187,-176.5001 1274.0188,-169.5001"/>
</g>
<!-- IonicModule.forRoot() -->
<g id="node4" class="node">
<title>IonicModule.forRoot()</title>
<polygon fill="#8dd3c7" stroke="#000000" points="1703.1855,-122 1700.1855,-126 1679.1855,-126 1676.1855,-122 1558.8145,-122 1558.8145,-86 1703.1855,-86 1703.1855,-122"/>
<text text-anchor="middle" x="1631" y="-99.8" font-family="Times,serif" font-size="14.00" fill="#000000">IonicModule.forRoot()</text>
</g>
<!-- IonicModule.forRoot()&#45;&gt;AppModule -->
<g id="edge3" class="edge">
<title>IonicModule.forRoot()&#45;&gt;AppModule</title>
<path fill="none" stroke="#000000" d="M1631,-122.2667C1631,-140.5552 1631,-166 1631,-166 1631,-166 1273.8481,-166 1273.8481,-166"/>
<polygon fill="#000000" stroke="#000000" points="1273.8481,-162.5001 1263.8481,-166 1273.8481,-169.5001 1273.8481,-162.5001"/>
</g>
<!-- HttpClientModule -->
<g id="node5" class="node">
<title>HttpClientModule</title>
<polygon fill="#8dd3c7" stroke="#000000" points="1540.1611,-122 1537.1611,-126 1516.1611,-126 1513.1611,-122 1421.8389,-122 1421.8389,-86 1540.1611,-86 1540.1611,-122"/>
<text text-anchor="middle" x="1481" y="-99.8" font-family="Times,serif" font-size="14.00" fill="#000000">HttpClientModule</text>
</g>
<!-- HttpClientModule&#45;&gt;AppModule -->
<g id="edge4" class="edge">
<title>HttpClientModule&#45;&gt;AppModule</title>
<path fill="none" stroke="#000000" d="M1481,-122.0091C1481,-138.0494 1481,-159 1481,-159 1481,-159 1273.9007,-159 1273.9007,-159"/>
<polygon fill="#000000" stroke="#000000" points="1273.9007,-155.5001 1263.9007,-159 1273.9006,-162.5001 1273.9007,-155.5001"/>
</g>
<!-- IonicStorageModule.forRoot() -->
<g id="node6" class="node">
<title>IonicStorageModule.forRoot()</title>
<polygon fill="#8dd3c7" stroke="#000000" points="1403.9487,-122 1400.9487,-126 1379.9487,-126 1376.9487,-122 1216.0513,-122 1216.0513,-86 1403.9487,-86 1403.9487,-122"/>
<text text-anchor="middle" x="1310" y="-99.8" font-family="Times,serif" font-size="14.00" fill="#000000">IonicStorageModule.forRoot()</text>
</g>
<!-- IonicStorageModule.forRoot()&#45;&gt;AppModule -->
<g id="edge5" class="edge">
<title>IonicStorageModule.forRoot()&#45;&gt;AppModule</title>
<path fill="none" stroke="#000000" d="M1240.0521,-122.1061C1240.0521,-122.1061 1240.0521,-140.991 1240.0521,-140.991"/>
<polygon fill="#000000" stroke="#000000" points="1236.5521,-140.9909 1240.0521,-150.991 1243.5521,-140.991 1236.5521,-140.9909"/>
</g>
<!-- AppRoutingModule -->
<g id="node7" class="node">
<title>AppRoutingModule</title>
<polygon fill="#8dd3c7" stroke="#000000" points="1198.2744,-122 1195.2744,-126 1174.2744,-126 1171.2744,-122 1069.7256,-122 1069.7256,-86 1198.2744,-86 1198.2744,-122"/>
<text text-anchor="middle" x="1134" y="-99.8" font-family="Times,serif" font-size="14.00" fill="#000000">AppRoutingModule</text>
</g>
<!-- AppRoutingModule&#45;&gt;AppModule -->
<g id="edge6" class="edge">
<title>AppRoutingModule&#45;&gt;AppModule</title>
<path fill="none" stroke="#000000" d="M1189.2795,-122.1061C1189.2795,-122.1061 1189.2795,-140.991 1189.2795,-140.991"/>
<polygon fill="#000000" stroke="#000000" points="1185.7795,-140.9909 1189.2795,-150.991 1192.7795,-140.991 1185.7795,-140.9909"/>
</g>
<!-- OkodeNgxCommonModule.forRoot() -->
<g id="node8" class="node">
<title>OkodeNgxCommonModule.forRoot()</title>
<polygon fill="#8dd3c7" stroke="#000000" points="1051.9655,-122 1048.9655,-126 1027.9655,-126 1024.9655,-122 822.0345,-122 822.0345,-86 1051.9655,-86 1051.9655,-122"/>
<text text-anchor="middle" x="937" y="-99.8" font-family="Times,serif" font-size="14.00" fill="#000000">OkodeNgxCommonModule.forRoot()</text>
</g>
<!-- OkodeNgxCommonModule.forRoot()&#45;&gt;AppModule -->
<g id="edge7" class="edge">
<title>OkodeNgxCommonModule.forRoot()&#45;&gt;AppModule</title>
<path fill="none" stroke="#000000" d="M937,-122.0091C937,-138.0494 937,-159 937,-159 937,-159 1170.2533,-159 1170.2533,-159"/>
<polygon fill="#000000" stroke="#000000" points="1170.2534,-162.5001 1180.2533,-159 1170.2533,-155.5001 1170.2534,-162.5001"/>
</g>
<!-- StatusBar -->
<g id="node10" class="node">
<title>StatusBar</title>
<ellipse fill="#fdb462" stroke="#000000" cx="749" cy="-104" rx="48.6694" ry="18"/>
<text text-anchor="middle" x="749" y="-99.8" font-family="Times,serif" font-size="14.00" fill="#000000">StatusBar</text>
</g>
<!-- StatusBar&#45;&gt;AppModule -->
<g id="edge9" class="edge">
<title>StatusBar&#45;&gt;AppModule</title>
<path fill="none" stroke="#000000" d="M749,-122.2667C749,-140.5552 749,-166 749,-166 749,-166 1170.0244,-166 1170.0244,-166"/>
<polygon fill="#000000" stroke="#000000" points="1170.0244,-169.5001 1180.0244,-166 1170.0244,-162.5001 1170.0244,-169.5001"/>
</g>
<!-- SplashScreen -->
<g id="node11" class="node">
<title>SplashScreen</title>
<ellipse fill="#fdb462" stroke="#000000" cx="619" cy="-104" rx="63.1189" ry="18"/>
<text text-anchor="middle" x="619" y="-99.8" font-family="Times,serif" font-size="14.00" fill="#000000">SplashScreen</text>
</g>
<!-- SplashScreen&#45;&gt;AppModule -->
<g id="edge10" class="edge">
<title>SplashScreen&#45;&gt;AppModule</title>
<path fill="none" stroke="#000000" d="M619,-122.1289C619,-142.5724 619,-173 619,-173 619,-173 1170.077,-173 1170.077,-173"/>
<polygon fill="#000000" stroke="#000000" points="1170.077,-176.5001 1180.077,-173 1170.0769,-169.5001 1170.077,-176.5001"/>
</g>
<!-- { provide: RouteReuseStrategy, useClass: IonicRouteStrategy } -->
<g id="node12" class="node">
<title>{ provide: RouteReuseStrategy, useClass: IonicRouteStrategy }</title>
<ellipse fill="#fdb462" stroke="#000000" cx="281" cy="-104" rx="257.2723" ry="18"/>
<text text-anchor="middle" x="281" y="-99.8" font-family="Times,serif" font-size="14.00" fill="#000000">{ provide: RouteReuseStrategy, useClass: IonicRouteStrategy }</text>
</g>
<!-- { provide: RouteReuseStrategy, useClass: IonicRouteStrategy }&#45;&gt;AppModule -->
<g id="edge11" class="edge">
<title>{ provide: RouteReuseStrategy, useClass: IonicRouteStrategy }&#45;&gt;AppModule</title>
<path fill="none" stroke="#000000" d="M281,-122.0109C281,-144.4852 281,-180 281,-180 281,-180 1170.0462,-180 1170.0462,-180"/>
<polygon fill="#000000" stroke="#000000" points="1170.0462,-183.5001 1180.0462,-180 1170.0461,-176.5001 1170.0462,-183.5001"/>
</g>
</g>
</svg>
