<?xml version="1.0" encoding="UTF-8" standalone="no"?>
<!DOCTYPE svg PUBLIC "-//W3C//DTD SVG 1.1//EN"
 "http://www.w3.org/Graphics/SVG/1.1/DTD/svg11.dtd">
<!-- Generated by graphviz version 2.40.1 (20161225.0304)
 -->
<!-- Title: dependencies Pages: 1 -->
<svg width="905pt" height="211pt"
 viewBox="0.00 0.00 905.00 211.00" xmlns="http://www.w3.org/2000/svg" xmlns:xlink="http://www.w3.org/1999/xlink">
<g id="graph0" class="graph" transform="scale(1 1) rotate(0) translate(4 207)">
<title>dependencies</title>
<polygon fill="#ffffff" stroke="transparent" points="-4,4 -4,-207 901,-207 901,4 -4,4"/>
<text text-anchor="start" x="427.5091" y="-42.4" font-family="sans-serif" font-weight="bold" font-size="14.00" fill="#000000">Legend</text>
<polygon fill="#ffffb3" stroke="transparent" points="214.5,-10 214.5,-30 234.5,-30 234.5,-10 214.5,-10"/>
<text text-anchor="start" x="238.129" y="-15.4" font-family="sans-serif" font-size="14.00" fill="#000000"> &#160;Declarations</text>
<polygon fill="#8dd3c7" stroke="transparent" points="327.5,-10 327.5,-30 347.5,-30 347.5,-10 327.5,-10"/>
<text text-anchor="start" x="351.2251" y="-15.4" font-family="sans-serif" font-size="14.00" fill="#000000"> &#160;Module</text>
<polygon fill="#80b1d3" stroke="transparent" points="413.5,-10 413.5,-30 433.5,-30 433.5,-10 413.5,-10"/>
<text text-anchor="start" x="437.2812" y="-15.4" font-family="sans-serif" font-size="14.00" fill="#000000"> &#160;Bootstrap</text>
<polygon fill="#fdb462" stroke="transparent" points="510.5,-10 510.5,-30 530.5,-30 530.5,-10 510.5,-10"/>
<text text-anchor="start" x="534.1732" y="-15.4" font-family="sans-serif" font-size="14.00" fill="#000000"> &#160;Providers</text>
<polygon fill="#fb8072" stroke="transparent" points="606.5,-10 606.5,-30 626.5,-30 626.5,-10 606.5,-10"/>
<text text-anchor="start" x="630.2258" y="-15.4" font-family="sans-serif" font-size="14.00" fill="#000000"> &#160;Exports</text>
<g id="clust1" class="cluster">
<title>cluster_GridsPageModule</title>
<polygon fill="none" stroke="#000000" stroke-dasharray="1,5" points="8,-70 8,-195 889,-195 889,-70 8,-70"/>
</g>
<g id="clust2" class="cluster">
<title>cluster_GridsPageModule_declarations</title>
<polygon fill="none" stroke="#000000" points="791,-78 791,-130 881,-130 881,-78 791,-78"/>
</g>
<g id="clust4" class="cluster">
<title>cluster_GridsPageModule_imports</title>
<polygon fill="none" stroke="#000000" points="16,-78 16,-130 783,-130 783,-78 16,-78"/>
</g>
<!-- GridsPage -->
<g id="node1" class="node">
<title>GridsPage</title>
<polygon fill="#ffffb3" stroke="#000000" points="873.3149,-122 798.6851,-122 798.6851,-86 873.3149,-86 873.3149,-122"/>
<text text-anchor="middle" x="836" y="-99.8" font-family="Times,serif" font-size="14.00" fill="#000000">GridsPage</text>
</g>
<!-- GridsPageModule -->
<g id="node2" class="node">
<title>GridsPageModule</title>
<polygon fill="#8dd3c7" stroke="#000000" points="601.8641,-187 598.8641,-191 577.8641,-191 574.8641,-187 484.1359,-187 484.1359,-151 601.8641,-151 601.8641,-187"/>
<text text-anchor="middle" x="543" y="-164.8" font-family="Times,serif" font-size="14.00" fill="#000000">GridsPageModule</text>
</g>
<!-- GridsPage&#45;&gt;GridsPageModule -->
<g id="edge1" class="edge">
<title>GridsPage&#45;&gt;GridsPageModule</title>
<path fill="none" stroke="#000000" d="M836,-122.2843C836,-143.3211 836,-175 836,-175 836,-175 611.9405,-175 611.9405,-175"/>
<polygon fill="#000000" stroke="#000000" points="611.9405,-171.5001 601.9405,-175 611.9404,-178.5001 611.9405,-171.5001"/>
</g>
<!-- CommonModule -->
<g id="node3" class="node">
<title>CommonModule</title>
<polygon fill="#8dd3c7" stroke="#000000" points="774.6681,-122 771.6681,-126 750.6681,-126 747.6681,-122 663.3319,-122 663.3319,-86 774.6681,-86 774.6681,-122"/>
<text text-anchor="middle" x="719" y="-99.8" font-family="Times,serif" font-size="14.00" fill="#000000">CommonModule</text>
</g>
<!-- CommonModule&#45;&gt;GridsPageModule -->
<g id="edge2" class="edge">
<title>CommonModule&#45;&gt;GridsPageModule</title>
<path fill="none" stroke="#000000" d="M719,-122.0225C719,-139.3734 719,-163 719,-163 719,-163 612.0951,-163 612.0951,-163"/>
<polygon fill="#000000" stroke="#000000" points="612.0951,-159.5001 602.0951,-163 612.095,-166.5001 612.0951,-159.5001"/>
</g>
<!-- FormsModule -->
<g id="node4" class="node">
<title>FormsModule</title>
<polygon fill="#8dd3c7" stroke="#000000" points="645.8288,-122 642.8288,-126 621.8288,-126 618.8288,-122 550.1712,-122 550.1712,-86 645.8288,-86 645.8288,-122"/>
<text text-anchor="middle" x="598" y="-99.8" font-family="Times,serif" font-size="14.00" fill="#000000">FormsModule</text>
</g>
<!-- FormsModule&#45;&gt;GridsPageModule -->
<g id="edge3" class="edge">
<title>FormsModule&#45;&gt;GridsPageModule</title>
<path fill="none" stroke="#000000" d="M576.134,-122.1061C576.134,-122.1061 576.134,-140.991 576.134,-140.991"/>
<polygon fill="#000000" stroke="#000000" points="572.634,-140.9909 576.134,-150.991 579.634,-140.991 572.634,-140.9909"/>
</g>
<!-- IonicModule -->
<g id="node5" class="node">
<title>IonicModule</title>
<polygon fill="#8dd3c7" stroke="#000000" points="532.3162,-122 529.3162,-126 508.3162,-126 505.3162,-122 443.6838,-122 443.6838,-86 532.3162,-86 532.3162,-122"/>
<text text-anchor="middle" x="488" y="-99.8" font-family="Times,serif" font-size="14.00" fill="#000000">IonicModule</text>
</g>
<!-- IonicModule&#45;&gt;GridsPageModule -->
<g id="edge4" class="edge">
<title>IonicModule&#45;&gt;GridsPageModule</title>
<path fill="none" stroke="#000000" d="M508.1129,-122.1061C508.1129,-122.1061 508.1129,-140.991 508.1129,-140.991"/>
<polygon fill="#000000" stroke="#000000" points="504.613,-140.9909 508.1129,-150.991 511.613,-140.991 504.613,-140.9909"/>
</g>
<!-- OkodeNgxCustomPaletteModule -->
<g id="node6" class="node">
<title>OkodeNgxCustomPaletteModule</title>
<polygon fill="#8dd3c7" stroke="#000000" points="426.1385,-122 423.1385,-126 402.1385,-126 399.1385,-122 223.8615,-122 223.8615,-86 426.1385,-86 426.1385,-122"/>
<text text-anchor="middle" x="325" y="-99.8" font-family="Times,serif" font-size="14.00" fill="#000000">OkodeNgxCustomPaletteModule</text>
</g>
<!-- OkodeNgxCustomPaletteModule&#45;&gt;GridsPageModule -->
<g id="edge5" class="edge">
<title>OkodeNgxCustomPaletteModule&#45;&gt;GridsPageModule</title>
<path fill="none" stroke="#000000" d="M325,-122.0225C325,-139.3734 325,-163 325,-163 325,-163 474.0061,-163 474.0061,-163"/>
<polygon fill="#000000" stroke="#000000" points="474.0061,-166.5001 484.0061,-163 474.006,-159.5001 474.0061,-166.5001"/>
</g>
<!-- RouterModule.forChild(args) -->
<g id="node7" class="node">
<title>RouterModule.forChild(args)</title>
<polygon fill="#8dd3c7" stroke="#000000" points="205.7323,-122 202.7323,-126 181.7323,-126 178.7323,-122 24.2677,-122 24.2677,-86 205.7323,-86 205.7323,-122"/>
<text text-anchor="middle" x="115" y="-99.8" font-family="Times,serif" font-size="14.00" fill="#000000">RouterModule.forChild(args)</text>
</g>
<!-- RouterModule.forChild(args)&#45;&gt;GridsPageModule -->
<g id="edge6" class="edge">
<title>RouterModule.forChild(args)&#45;&gt;GridsPageModule</title>
<path fill="none" stroke="#000000" d="M115,-122.2843C115,-143.3211 115,-175 115,-175 115,-175 473.9378,-175 473.9378,-175"/>
<polygon fill="#000000" stroke="#000000" points="473.9378,-178.5001 483.9378,-175 473.9378,-171.5001 473.9378,-178.5001"/>
</g>
</g>
</svg>
