<?xml version="1.0" encoding="UTF-8" standalone="no"?>
<!DOCTYPE svg PUBLIC "-//W3C//DTD SVG 1.1//EN"
 "http://www.w3.org/Graphics/SVG/1.1/DTD/svg11.dtd">
<!-- Generated by graphviz version 2.40.1 (20161225.0304)
 -->
<!-- Title: dependencies Pages: 1 -->
<svg width="4731pt" height="296pt"
 viewBox="0.00 0.00 4731.00 296.00" xmlns="http://www.w3.org/2000/svg" xmlns:xlink="http://www.w3.org/1999/xlink">
<g id="graph0" class="graph" transform="scale(1 1) rotate(0) translate(4 292)">
<title>dependencies</title>
<polygon fill="#ffffff" stroke="transparent" points="-4,4 -4,-292 4727,-292 4727,4 -4,4"/>
<text text-anchor="start" x="2340.5091" y="-42.4" font-family="sans-serif" font-weight="bold" font-size="14.00" fill="#000000">Legend</text>
<polygon fill="#ffffb3" stroke="transparent" points="2127.5,-10 2127.5,-30 2147.5,-30 2147.5,-10 2127.5,-10"/>
<text text-anchor="start" x="2151.129" y="-15.4" font-family="sans-serif" font-size="14.00" fill="#000000"> &#160;Declarations</text>
<polygon fill="#8dd3c7" stroke="transparent" points="2240.5,-10 2240.5,-30 2260.5,-30 2260.5,-10 2240.5,-10"/>
<text text-anchor="start" x="2264.2251" y="-15.4" font-family="sans-serif" font-size="14.00" fill="#000000"> &#160;Module</text>
<polygon fill="#80b1d3" stroke="transparent" points="2326.5,-10 2326.5,-30 2346.5,-30 2346.5,-10 2326.5,-10"/>
<text text-anchor="start" x="2350.2812" y="-15.4" font-family="sans-serif" font-size="14.00" fill="#000000"> &#160;Bootstrap</text>
<polygon fill="#fdb462" stroke="transparent" points="2423.5,-10 2423.5,-30 2443.5,-30 2443.5,-10 2423.5,-10"/>
<text text-anchor="start" x="2447.1732" y="-15.4" font-family="sans-serif" font-size="14.00" fill="#000000"> &#160;Providers</text>
<polygon fill="#fb8072" stroke="transparent" points="2519.5,-10 2519.5,-30 2539.5,-30 2539.5,-10 2519.5,-10"/>
<text text-anchor="start" x="2543.2258" y="-15.4" font-family="sans-serif" font-size="14.00" fill="#000000"> &#160;Exports</text>
<g id="clust1" class="cluster">
<title>cluster_AppModule</title>
<polygon fill="none" stroke="#000000" stroke-dasharray="1,5" points="8,-76 8,-280 1045,-280 1045,-76 8,-76"/>
</g>
<g id="clust3" class="cluster">
<title>cluster_AppModule_imports</title>
<polygon fill="none" stroke="#000000" points="16,-84 16,-136 1037,-136 1037,-84 16,-84"/>
</g>
<g id="clust5" class="cluster">
<title>cluster_AppModule_bootstrap</title>
<polygon fill="none" stroke="#000000" points="512,-220 512,-272 636,-272 636,-220 512,-220"/>
</g>
<g id="clust7" class="cluster">
<title>cluster_AppRoutingModule</title>
<polygon fill="none" stroke="#000000" stroke-dasharray="1,5" points="1053,-144 1053,-212 1389,-212 1389,-144 1053,-144"/>
</g>
<g id="clust9" class="cluster">
<title>cluster_AppRoutingModule_imports</title>
<polygon fill="none" stroke="#000000" points="1187,-152 1187,-204 1381,-204 1381,-152 1187,-152"/>
</g>
<g id="clust10" class="cluster">
<title>cluster_AppRoutingModule_exports</title>
<polygon fill="none" stroke="#000000" points="1061,-152 1061,-204 1179,-204 1179,-152 1061,-152"/>
</g>
<g id="clust13" class="cluster">
<title>cluster_CalendarPageModule</title>
<polygon fill="none" stroke="#000000" stroke-dasharray="1,5" points="1397,-76 1397,-204 2109,-204 2109,-76 1397,-76"/>
</g>
<g id="clust15" class="cluster">
<title>cluster_CalendarPageModule_imports</title>
<polygon fill="none" stroke="#000000" points="1405,-84 1405,-136 2101,-136 2101,-84 1405,-84"/>
</g>
<g id="clust19" class="cluster">
<title>cluster_CardsPageModule</title>
<polygon fill="none" stroke="#000000" stroke-dasharray="1,5" points="2863,-76 2863,-204 3097,-204 3097,-76 2863,-76"/>
</g>
<g id="clust21" class="cluster">
<title>cluster_CardsPageModule_imports</title>
<polygon fill="none" stroke="#000000" points="2871,-84 2871,-136 3089,-136 3089,-84 2871,-84"/>
</g>
<g id="clust25" class="cluster">
<title>cluster_DialogsPageModule</title>
<polygon fill="none" stroke="#000000" stroke-dasharray="1,5" points="2421,-152 2421,-204 2567,-204 2567,-152 2421,-152"/>
</g>
<g id="clust31" class="cluster">
<title>cluster_FormsPageModule</title>
<polygon fill="none" stroke="#000000" stroke-dasharray="1,5" points="2575,-152 2575,-204 2713,-204 2713,-152 2575,-152"/>
</g>
<g id="clust37" class="cluster">
<title>cluster_GridsPageModule</title>
<polygon fill="none" stroke="#000000" stroke-dasharray="1,5" points="2721,-152 2721,-204 2855,-204 2855,-152 2721,-152"/>
</g>
<g id="clust43" class="cluster">
<title>cluster_HomePageModule</title>
<polygon fill="none" stroke="#000000" stroke-dasharray="1,5" points="2117,-152 2117,-204 2253,-204 2253,-152 2117,-152"/>
</g>
<g id="clust49" class="cluster">
<title>cluster_MapsPageModule</title>
<polygon fill="none" stroke="#000000" stroke-dasharray="1,5" points="4329,-76 4329,-204 4555,-204 4555,-76 4329,-76"/>
</g>
<g id="clust51" class="cluster">
<title>cluster_MapsPageModule_imports</title>
<polygon fill="none" stroke="#000000" points="4337,-84 4337,-136 4547,-136 4547,-84 4337,-84"/>
</g>
<g id="clust61" class="cluster">
<title>cluster_OkodeNgxCustomPaletteModule</title>
<polygon fill="none" stroke="#000000" stroke-dasharray="1,5" points="3105,-144 3105,-212 4321,-212 4321,-144 3105,-144"/>
</g>
<g id="clust64" class="cluster">
<title>cluster_OkodeNgxCustomPaletteModule_exports</title>
<polygon fill="none" stroke="#000000" points="3113,-152 3113,-204 4313,-204 4313,-152 3113,-152"/>
</g>
<g id="clust67" class="cluster">
<title>cluster_PdfPageModule</title>
<polygon fill="none" stroke="#000000" stroke-dasharray="1,5" points="4563,-76 4563,-204 4715,-204 4715,-76 4563,-76"/>
</g>
<g id="clust69" class="cluster">
<title>cluster_PdfPageModule_imports</title>
<polygon fill="none" stroke="#000000" points="4571,-84 4571,-136 4707,-136 4707,-84 4571,-84"/>
</g>
<g id="clust73" class="cluster">
<title>cluster_ToolbarsPageModule</title>
<polygon fill="none" stroke="#000000" stroke-dasharray="1,5" points="2261,-152 2261,-204 2413,-204 2413,-152 2261,-152"/>
</g>
<!-- BrowserModule -->
<g id="node1" class="node">
<title>BrowserModule</title>
<polygon fill="#8dd3c7" stroke="#000000" points="130.4734,-128 127.4734,-132 106.4734,-132 103.4734,-128 23.5266,-128 23.5266,-92 130.4734,-92 130.4734,-128"/>
<text text-anchor="middle" x="77" y="-105.8" font-family="Times,serif" font-size="14.00" fill="#000000">BrowserModule</text>
</g>
<!-- AppModule -->
<g id="node7" class="node">
<title>AppModule</title>
<polygon fill="#8dd3c7" stroke="#000000" points="615.6571,-196 612.6571,-200 591.6571,-200 588.6571,-196 532.3429,-196 532.3429,-160 615.6571,-160 615.6571,-196"/>
<text text-anchor="middle" x="574" y="-173.8" font-family="Times,serif" font-size="14.00" fill="#000000">AppModule</text>
</g>
<!-- BrowserModule&#45;&gt;AppModule -->
<g id="edge1" class="edge">
<title>BrowserModule&#45;&gt;AppModule</title>
<path fill="none" stroke="#000000" d="M77,-128.2921C77,-150.2057 77,-184 77,-184 77,-184 522.0544,-184 522.0544,-184"/>
<polygon fill="#000000" stroke="#000000" points="522.0544,-187.5001 532.0544,-184 522.0544,-180.5001 522.0544,-187.5001"/>
</g>
<!-- IonicModule.forRoot() -->
<g id="node2" class="node">
<title>IonicModule.forRoot()</title>
<polygon fill="#8dd3c7" stroke="#000000" points="882.1855,-128 879.1855,-132 858.1855,-132 855.1855,-128 737.8145,-128 737.8145,-92 882.1855,-92 882.1855,-128"/>
<text text-anchor="middle" x="810" y="-105.8" font-family="Times,serif" font-size="14.00" fill="#000000">IonicModule.forRoot()</text>
</g>
<!-- IonicModule.forRoot()&#45;&gt;AppModule -->
<g id="edge2" class="edge">
<title>IonicModule.forRoot()&#45;&gt;AppModule</title>
<path fill="none" stroke="#000000" d="M810,-128.2667C810,-146.5552 810,-172 810,-172 810,-172 625.9201,-172 625.9201,-172"/>
<polygon fill="#000000" stroke="#000000" points="625.9202,-168.5001 615.9201,-172 625.9201,-175.5001 625.9202,-168.5001"/>
</g>
<!-- HttpClientModule -->
<g id="node3" class="node">
<title>HttpClientModule</title>
<polygon fill="#8dd3c7" stroke="#000000" points="719.1611,-128 716.1611,-132 695.1611,-132 692.1611,-128 600.8389,-128 600.8389,-92 719.1611,-92 719.1611,-128"/>
<text text-anchor="middle" x="660" y="-105.8" font-family="Times,serif" font-size="14.00" fill="#000000">HttpClientModule</text>
</g>
<!-- HttpClientModule&#45;&gt;AppModule -->
<g id="edge3" class="edge">
<title>HttpClientModule&#45;&gt;AppModule</title>
<path fill="none" stroke="#000000" d="M608.249,-128.2228C608.249,-128.2228 608.249,-149.7269 608.249,-149.7269"/>
<polygon fill="#000000" stroke="#000000" points="604.749,-149.7269 608.249,-159.7269 611.749,-149.727 604.749,-149.7269"/>
</g>
<!-- IonicStorageModule.forRoot() -->
<g id="node4" class="node">
<title>IonicStorageModule.forRoot()</title>
<polygon fill="#8dd3c7" stroke="#000000" points="582.9487,-128 579.9487,-132 558.9487,-132 555.9487,-128 395.0513,-128 395.0513,-92 582.9487,-92 582.9487,-128"/>
<text text-anchor="middle" x="489" y="-105.8" font-family="Times,serif" font-size="14.00" fill="#000000">IonicStorageModule.forRoot()</text>
</g>
<!-- IonicStorageModule.forRoot()&#45;&gt;AppModule -->
<g id="edge4" class="edge">
<title>IonicStorageModule.forRoot()&#45;&gt;AppModule</title>
<path fill="none" stroke="#000000" d="M557.448,-128.2228C557.448,-128.2228 557.448,-149.7269 557.448,-149.7269"/>
<polygon fill="#000000" stroke="#000000" points="553.948,-149.7269 557.448,-159.7269 560.948,-149.727 553.948,-149.7269"/>
</g>
<!-- AppRoutingModule -->
<g id="node5" class="node">
<title>AppRoutingModule</title>
<polygon fill="#8dd3c7" stroke="#000000" points="1029.2744,-128 1026.2744,-132 1005.2744,-132 1002.2744,-128 900.7256,-128 900.7256,-92 1029.2744,-92 1029.2744,-128"/>
<text text-anchor="middle" x="965" y="-105.8" font-family="Times,serif" font-size="14.00" fill="#000000">AppRoutingModule</text>
</g>
<!-- AppRoutingModule&#45;&gt;AppModule -->
<g id="edge5" class="edge">
<title>AppRoutingModule&#45;&gt;AppModule</title>
<path fill="none" stroke="#000000" d="M965,-128.2921C965,-150.2057 965,-184 965,-184 965,-184 625.8438,-184 625.8438,-184"/>
<polygon fill="#000000" stroke="#000000" points="625.8439,-180.5001 615.8438,-184 625.8438,-187.5001 625.8439,-180.5001"/>
</g>
<!-- RouterModule  -->
<g id="node10" class="node">
<title>RouterModule </title>
<polygon fill="#fb8072" stroke="#000000" points="1170.6523,-196 1069.3477,-196 1069.3477,-160 1170.6523,-160 1170.6523,-196"/>
<text text-anchor="middle" x="1120" y="-173.8" font-family="Times,serif" font-size="14.00" fill="#000000">RouterModule </text>
</g>
<!-- AppRoutingModule&#45;&gt;RouterModule  -->
<g id="edge9" class="edge">
<title>AppRoutingModule&#45;&gt;RouterModule </title>
<path fill="none" stroke="#000000" stroke-dasharray="5,2" d="M1029.3874,-116C1071.9734,-116 1120,-116 1120,-116 1120,-116 1120,-149.7333 1120,-149.7333"/>
<polygon fill="#000000" stroke="#000000" points="1116.5001,-149.7333 1120,-159.7333 1123.5001,-149.7333 1116.5001,-149.7333"/>
</g>
<!-- OkodeNgxCommonModule.forRoot() -->
<g id="node6" class="node">
<title>OkodeNgxCommonModule.forRoot()</title>
<polygon fill="#8dd3c7" stroke="#000000" points="377.9655,-128 374.9655,-132 353.9655,-132 350.9655,-128 148.0345,-128 148.0345,-92 377.9655,-92 377.9655,-128"/>
<text text-anchor="middle" x="263" y="-105.8" font-family="Times,serif" font-size="14.00" fill="#000000">OkodeNgxCommonModule.forRoot()</text>
</g>
<!-- OkodeNgxCommonModule.forRoot()&#45;&gt;AppModule -->
<g id="edge6" class="edge">
<title>OkodeNgxCommonModule.forRoot()&#45;&gt;AppModule</title>
<path fill="none" stroke="#000000" d="M263,-128.2667C263,-146.5552 263,-172 263,-172 263,-172 522.0572,-172 522.0572,-172"/>
<polygon fill="#000000" stroke="#000000" points="522.0572,-175.5001 532.0572,-172 522.0571,-168.5001 522.0572,-175.5001"/>
</g>
<!-- AppComponent  -->
<g id="node8" class="node">
<title>AppComponent </title>
<polygon fill="#80b1d3" stroke="#000000" points="628.439,-264 519.561,-264 519.561,-228 628.439,-228 628.439,-264"/>
<text text-anchor="middle" x="574" y="-241.8" font-family="Times,serif" font-size="14.00" fill="#000000">AppComponent </text>
</g>
<!-- AppModule&#45;&gt;AppComponent  -->
<g id="edge7" class="edge">
<title>AppModule&#45;&gt;AppComponent </title>
<path fill="none" stroke="#000000" stroke-dasharray="1,5" d="M574,-196.2228C574,-196.2228 574,-217.7269 574,-217.7269"/>
<polygon fill="#000000" stroke="#000000" points="570.5001,-217.7269 574,-227.7269 577.5001,-217.727 570.5001,-217.7269"/>
</g>
<!-- RouterModule.forRoot(args) -->
<g id="node9" class="node">
<title>RouterModule.forRoot(args)</title>
<polygon fill="#8dd3c7" stroke="#000000" points="1372.8419,-196 1369.8419,-200 1348.8419,-200 1345.8419,-196 1195.1581,-196 1195.1581,-160 1372.8419,-160 1372.8419,-196"/>
<text text-anchor="middle" x="1284" y="-173.8" font-family="Times,serif" font-size="14.00" fill="#000000">RouterModule.forRoot(args)</text>
</g>
<!-- RouterModule.forRoot(args)&#45;&gt;AppRoutingModule -->
<g id="edge8" class="edge">
<title>RouterModule.forRoot(args)&#45;&gt;AppRoutingModule</title>
<path fill="none" stroke="#000000" d="M1284,-159.7079C1284,-137.7943 1284,-104 1284,-104 1284,-104 1039.5544,-104 1039.5544,-104"/>
<polygon fill="#000000" stroke="#000000" points="1039.5544,-100.5001 1029.5544,-104 1039.5544,-107.5001 1039.5544,-100.5001"/>
</g>
<!-- CommonModule -->
<g id="node11" class="node">
<title>CommonModule</title>
<polygon fill="#8dd3c7" stroke="#000000" points="1787.6681,-128 1784.6681,-132 1763.6681,-132 1760.6681,-128 1676.3319,-128 1676.3319,-92 1787.6681,-92 1787.6681,-128"/>
<text text-anchor="middle" x="1732" y="-105.8" font-family="Times,serif" font-size="14.00" fill="#000000">CommonModule</text>
</g>
<!-- CalendarPageModule -->
<g id="node16" class="node">
<title>CalendarPageModule</title>
<polygon fill="#8dd3c7" stroke="#000000" points="1800.7935,-196 1797.7935,-200 1776.7935,-200 1773.7935,-196 1663.2065,-196 1663.2065,-160 1800.7935,-160 1800.7935,-196"/>
<text text-anchor="middle" x="1732" y="-173.8" font-family="Times,serif" font-size="14.00" fill="#000000">CalendarPageModule</text>
</g>
<!-- CommonModule&#45;&gt;CalendarPageModule -->
<g id="edge10" class="edge">
<title>CommonModule&#45;&gt;CalendarPageModule</title>
<path fill="none" stroke="#000000" d="M1688.5737,-128.2228C1688.5737,-128.2228 1688.5737,-149.7269 1688.5737,-149.7269"/>
<polygon fill="#000000" stroke="#000000" points="1685.0738,-149.7269 1688.5737,-159.7269 1692.0738,-149.727 1685.0738,-149.7269"/>
</g>
<!-- CardsPageModule -->
<g id="node18" class="node">
<title>CardsPageModule</title>
<polygon fill="#8dd3c7" stroke="#000000" points="2990.9187,-196 2987.9187,-200 2966.9187,-200 2963.9187,-196 2871.0813,-196 2871.0813,-160 2990.9187,-160 2990.9187,-196"/>
<text text-anchor="middle" x="2931" y="-173.8" font-family="Times,serif" font-size="14.00" fill="#000000">CardsPageModule</text>
</g>
<!-- CommonModule&#45;&gt;CardsPageModule -->
<g id="edge15" class="edge">
<title>CommonModule&#45;&gt;CardsPageModule</title>
<path fill="none" stroke="#000000" d="M1763.0188,-128.0579C1763.0188,-132.4945 1763.0188,-136 1763.0188,-136 1763.0188,-136 2874.986,-136 2874.986,-136 2874.986,-136 2874.986,-149.9445 2874.986,-149.9445"/>
<polygon fill="#000000" stroke="#000000" points="2871.486,-149.9444 2874.986,-159.9445 2878.486,-149.9445 2871.486,-149.9444"/>
</g>
<!-- DialogsPageModule -->
<g id="node19" class="node">
<title>DialogsPageModule</title>
<polygon fill="#8dd3c7" stroke="#000000" points="2559.309,-196 2556.309,-200 2535.309,-200 2532.309,-196 2428.691,-196 2428.691,-160 2559.309,-160 2559.309,-196"/>
<text text-anchor="middle" x="2494" y="-173.8" font-family="Times,serif" font-size="14.00" fill="#000000">DialogsPageModule</text>
</g>
<!-- CommonModule&#45;&gt;DialogsPageModule -->
<g id="edge20" class="edge">
<title>CommonModule&#45;&gt;DialogsPageModule</title>
<path fill="none" stroke="#000000" d="M1725.7962,-128.1274C1725.7962,-138.7109 1725.7962,-150 1725.7962,-150 1725.7962,-150 2472.2819,-150 2472.2819,-150 2472.2819,-150 2472.2819,-150.9793 2472.2819,-150.9793"/>
<polygon fill="#000000" stroke="#000000" points="2468.782,-149.793 2472.2819,-159.793 2475.782,-149.7931 2468.782,-149.793"/>
</g>
<!-- FormsPageModule -->
<g id="node20" class="node">
<title>FormsPageModule</title>
<polygon fill="#8dd3c7" stroke="#000000" points="2705.0409,-196 2702.0409,-200 2681.0409,-200 2678.0409,-196 2582.9591,-196 2582.9591,-160 2705.0409,-160 2705.0409,-196"/>
<text text-anchor="middle" x="2644" y="-173.8" font-family="Times,serif" font-size="14.00" fill="#000000">FormsPageModule</text>
</g>
<!-- CommonModule&#45;&gt;FormsPageModule -->
<g id="edge25" class="edge">
<title>CommonModule&#45;&gt;FormsPageModule</title>
<path fill="none" stroke="#000000" d="M1738.2038,-128.32C1738.2038,-136.7883 1738.2038,-145 1738.2038,-145 1738.2038,-145 2623.5767,-145 2623.5767,-145 2623.5767,-145 2623.5767,-149.9551 2623.5767,-149.9551"/>
<polygon fill="#000000" stroke="#000000" points="2620.0768,-149.9551 2623.5767,-159.9551 2627.0768,-149.9552 2620.0768,-149.9551"/>
</g>
<!-- GridsPageModule -->
<g id="node21" class="node">
<title>GridsPageModule</title>
<polygon fill="#8dd3c7" stroke="#000000" points="2846.8641,-196 2843.8641,-200 2822.8641,-200 2819.8641,-196 2729.1359,-196 2729.1359,-160 2846.8641,-160 2846.8641,-196"/>
<text text-anchor="middle" x="2788" y="-173.8" font-family="Times,serif" font-size="14.00" fill="#000000">GridsPageModule</text>
</g>
<!-- CommonModule&#45;&gt;GridsPageModule -->
<g id="edge30" class="edge">
<title>CommonModule&#45;&gt;GridsPageModule</title>
<path fill="none" stroke="#000000" d="M1750.6113,-128.0328C1750.6113,-134.8526 1750.6113,-141 1750.6113,-141 1750.6113,-141 2768.356,-141 2768.356,-141 2768.356,-141 2768.356,-149.9336 2768.356,-149.9336"/>
<polygon fill="#000000" stroke="#000000" points="2764.8561,-149.9335 2768.356,-159.9336 2771.8561,-149.9336 2764.8561,-149.9335"/>
</g>
<!-- HomePageModule -->
<g id="node22" class="node">
<title>HomePageModule</title>
<polygon fill="#8dd3c7" stroke="#000000" points="2245.4734,-196 2242.4734,-200 2221.4734,-200 2218.4734,-196 2124.5266,-196 2124.5266,-160 2245.4734,-160 2245.4734,-196"/>
<text text-anchor="middle" x="2185" y="-173.8" font-family="Times,serif" font-size="14.00" fill="#000000">HomePageModule</text>
</g>
<!-- CommonModule&#45;&gt;HomePageModule -->
<g id="edge35" class="edge">
<title>CommonModule&#45;&gt;HomePageModule</title>
<path fill="none" stroke="#000000" d="M1700.9812,-128.037C1700.9812,-141.2913 1700.9812,-157 1700.9812,-157 1700.9812,-157 2185,-157 2185,-157 2185,-157 2185,-157.292 2185,-157.292"/>
<polygon fill="#000000" stroke="#000000" points="2181.5004,-149.9198 2185,-159.92 2188.5004,-149.9201 2181.5004,-149.9198"/>
</g>
<!-- MapsPageModule -->
<g id="node24" class="node">
<title>MapsPageModule</title>
<polygon fill="#8dd3c7" stroke="#000000" points="4454.8655,-196 4451.8655,-200 4430.8655,-200 4427.8655,-196 4337.1345,-196 4337.1345,-160 4454.8655,-160 4454.8655,-196"/>
<text text-anchor="middle" x="4396" y="-173.8" font-family="Times,serif" font-size="14.00" fill="#000000">MapsPageModule</text>
</g>
<!-- CommonModule&#45;&gt;MapsPageModule -->
<g id="edge40" class="edge">
<title>CommonModule&#45;&gt;MapsPageModule</title>
<path fill="none" stroke="#000000" d="M1775.4263,-128.1223C1775.4263,-130.9729 1775.4263,-133 1775.4263,-133 1775.4263,-133 4338.9945,-133 4338.9945,-133 4338.9945,-133 4338.9945,-149.9561 4338.9945,-149.9561"/>
<polygon fill="#000000" stroke="#000000" points="4335.4945,-149.956 4338.9945,-159.9561 4342.4945,-149.9561 4335.4945,-149.956"/>
</g>
<!-- PdfPageModule -->
<g id="node34" class="node">
<title>PdfPageModule</title>
<polygon fill="#8dd3c7" stroke="#000000" points="4677.205,-196 4674.205,-200 4653.205,-200 4650.205,-196 4570.795,-196 4570.795,-160 4677.205,-160 4677.205,-196"/>
<text text-anchor="middle" x="4624" y="-173.8" font-family="Times,serif" font-size="14.00" fill="#000000">PdfPageModule</text>
</g>
<!-- CommonModule&#45;&gt;PdfPageModule -->
<g id="edge53" class="edge">
<title>CommonModule&#45;&gt;PdfPageModule</title>
<path fill="none" stroke="#000000" d="M1732,-91.8533C1732,-78.2605 1732,-62 1732,-62 1732,-62 4576.9044,-62 4576.9044,-62 4576.9044,-62 4576.9044,-149.875 4576.9044,-149.875"/>
<polygon fill="#000000" stroke="#000000" points="4573.4045,-149.875 4576.9044,-159.875 4580.4045,-149.875 4573.4045,-149.875"/>
</g>
<!-- ToolbarsPageModule -->
<g id="node35" class="node">
<title>ToolbarsPageModule</title>
<polygon fill="#8dd3c7" stroke="#000000" points="2405.0254,-196 2402.0254,-200 2381.0254,-200 2378.0254,-196 2268.9746,-196 2268.9746,-160 2405.0254,-160 2405.0254,-196"/>
<text text-anchor="middle" x="2337" y="-173.8" font-family="Times,serif" font-size="14.00" fill="#000000">ToolbarsPageModule</text>
</g>
<!-- CommonModule&#45;&gt;ToolbarsPageModule -->
<g id="edge58" class="edge">
<title>CommonModule&#45;&gt;ToolbarsPageModule</title>
<path fill="none" stroke="#000000" d="M1713.3887,-128.1505C1713.3887,-140.2708 1713.3887,-154 1713.3887,-154 1713.3887,-154 2314.2459,-154 2314.2459,-154 2314.2459,-154 2314.2459,-154.581 2314.2459,-154.581"/>
<polygon fill="#000000" stroke="#000000" points="2310.7461,-149.8097 2314.2459,-159.8097 2317.7461,-149.8098 2310.7461,-149.8097"/>
</g>
<!-- FormsModule -->
<g id="node12" class="node">
<title>FormsModule</title>
<polygon fill="#8dd3c7" stroke="#000000" points="1658.8288,-128 1655.8288,-132 1634.8288,-132 1631.8288,-128 1563.1712,-128 1563.1712,-92 1658.8288,-92 1658.8288,-128"/>
<text text-anchor="middle" x="1611" y="-105.8" font-family="Times,serif" font-size="14.00" fill="#000000">FormsModule</text>
</g>
<!-- FormsModule&#45;&gt;CalendarPageModule -->
<g id="edge11" class="edge">
<title>FormsModule&#45;&gt;CalendarPageModule</title>
<path fill="none" stroke="#000000" d="M1658.7075,-110C1665.24,-110 1669.7598,-110 1669.7598,-110 1669.7598,-110 1669.7598,-149.7772 1669.7598,-149.7772"/>
<polygon fill="#000000" stroke="#000000" points="1666.2599,-149.7772 1669.7598,-159.7772 1673.2599,-149.7773 1666.2599,-149.7772"/>
</g>
<!-- FormsModule&#45;&gt;CardsPageModule -->
<g id="edge16" class="edge">
<title>FormsModule&#45;&gt;CardsPageModule</title>
<path fill="none" stroke="#000000" d="M1626.888,-128.207C1626.888,-133.5549 1626.888,-138 1626.888,-138 1626.888,-138 2873.1385,-138 2873.1385,-138 2873.1385,-138 2873.1385,-149.8726 2873.1385,-149.8726"/>
<polygon fill="#000000" stroke="#000000" points="2869.6386,-149.8725 2873.1385,-159.8726 2876.6386,-149.8726 2869.6386,-149.8725"/>
</g>
<!-- FormsModule&#45;&gt;DialogsPageModule -->
<g id="edge21" class="edge">
<title>FormsModule&#45;&gt;DialogsPageModule</title>
<path fill="none" stroke="#000000" d="M1595.112,-128.1025C1595.112,-139.0859 1595.112,-151 1595.112,-151 1595.112,-151 2450.5638,-151 2450.5638,-151 2450.5638,-151 2450.5638,-151.8841 2450.5638,-151.8841"/>
<polygon fill="#000000" stroke="#000000" points="2447.0639,-149.8408 2450.5638,-159.8408 2454.0639,-149.8409 2447.0639,-149.8408"/>
</g>
<!-- FormsModule&#45;&gt;FormsPageModule -->
<g id="edge26" class="edge">
<title>FormsModule&#45;&gt;FormsPageModule</title>
<path fill="none" stroke="#000000" d="M1605.704,-128.0664C1605.704,-137.4587 1605.704,-147 1605.704,-147 1605.704,-147 2603.1533,-147 2603.1533,-147 2603.1533,-147 2603.1533,-149.9672 2603.1533,-149.9672"/>
<polygon fill="#000000" stroke="#000000" points="2599.6534,-149.9671 2603.1533,-159.9672 2606.6534,-149.9672 2599.6534,-149.9671"/>
</g>
<!-- FormsModule&#45;&gt;GridsPageModule -->
<g id="edge31" class="edge">
<title>FormsModule&#45;&gt;GridsPageModule</title>
<path fill="none" stroke="#000000" d="M1616.296,-128.2434C1616.296,-135.4297 1616.296,-142 1616.296,-142 1616.296,-142 2748.712,-142 2748.712,-142 2748.712,-142 2748.712,-149.5782 2748.712,-149.5782"/>
<polygon fill="#000000" stroke="#000000" points="2745.2121,-149.5781 2748.712,-159.5782 2752.2121,-149.5782 2745.2121,-149.5781"/>
</g>
<!-- FormsModule&#45;&gt;HomePageModule -->
<g id="edge36" class="edge">
<title>FormsModule&#45;&gt;HomePageModule</title>
<path fill="none" stroke="#000000" d="M1573.9279,-128.2458C1573.9279,-142.1772 1573.9279,-159 1573.9279,-159 1573.9279,-159 2154.7567,-159 2154.7567,-159 2154.7567,-159 2154.7567,-159.0816 2154.7567,-159.0816"/>
<polygon fill="#000000" stroke="#000000" points="2151.258,-149.8159 2154.7567,-159.8164 2158.258,-149.8169 2151.258,-149.8159"/>
</g>
<!-- FormsModule&#45;&gt;MapsPageModule -->
<g id="edge41" class="edge">
<title>FormsModule&#45;&gt;MapsPageModule</title>
<path fill="none" stroke="#000000" d="M1637.4801,-128.1679C1637.4801,-130.4478 1637.4801,-132 1637.4801,-132 1637.4801,-132 4381.4948,-132 4381.4948,-132 4381.4948,-132 4381.4948,-149.8196 4381.4948,-149.8196"/>
<polygon fill="#000000" stroke="#000000" points="4377.9949,-149.8195 4381.4948,-159.8196 4384.9949,-149.8196 4377.9949,-149.8195"/>
</g>
<!-- FormsModule&#45;&gt;PdfPageModule -->
<g id="edge54" class="edge">
<title>FormsModule&#45;&gt;PdfPageModule</title>
<path fill="none" stroke="#000000" d="M1648.0721,-128.1543C1648.0721,-129.2969 1648.0721,-130 1648.0721,-130 1648.0721,-130 4611.6386,-130 4611.6386,-130 4611.6386,-130 4611.6386,-149.8533 4611.6386,-149.8533"/>
<polygon fill="#000000" stroke="#000000" points="4608.1387,-149.8532 4611.6386,-159.8533 4615.1387,-149.8533 4608.1387,-149.8532"/>
</g>
<!-- FormsModule&#45;&gt;ToolbarsPageModule -->
<g id="edge59" class="edge">
<title>FormsModule&#45;&gt;ToolbarsPageModule</title>
<path fill="none" stroke="#000000" d="M1584.5199,-128.1804C1584.5199,-141.0382 1584.5199,-156 1584.5199,-156 1584.5199,-156 2291.4918,-156 2291.4918,-156 2291.4918,-156 2291.4918,-156.3832 2291.4918,-156.3832"/>
<polygon fill="#000000" stroke="#000000" points="2287.9921,-149.832 2291.4918,-159.8321 2294.9921,-149.8322 2287.9921,-149.832"/>
</g>
<!-- IonicModule -->
<g id="node13" class="node">
<title>IonicModule</title>
<polygon fill="#8dd3c7" stroke="#000000" points="2093.3162,-128 2090.3162,-132 2069.3162,-132 2066.3162,-128 2004.6838,-128 2004.6838,-92 2093.3162,-92 2093.3162,-128"/>
<text text-anchor="middle" x="2049" y="-105.8" font-family="Times,serif" font-size="14.00" fill="#000000">IonicModule</text>
</g>
<!-- IonicModule&#45;&gt;CalendarPageModule -->
<g id="edge12" class="edge">
<title>IonicModule&#45;&gt;CalendarPageModule</title>
<path fill="none" stroke="#000000" d="M2034.2807,-128.0225C2034.2807,-145.3734 2034.2807,-169 2034.2807,-169 2034.2807,-169 1810.9704,-169 1810.9704,-169"/>
<polygon fill="#000000" stroke="#000000" points="1810.9704,-165.5001 1800.9704,-169 1810.9704,-172.5001 1810.9704,-165.5001"/>
</g>
<!-- IonicModule&#45;&gt;CardsPageModule -->
<g id="edge17" class="edge">
<title>IonicModule&#45;&gt;CardsPageModule</title>
<path fill="none" stroke="#000000" d="M2093.4193,-96C2262.8615,-96 2859.1115,-96 2859.1115,-96 2859.1115,-96 2859.1115,-178 2859.1115,-178 2859.1115,-178 2860.9824,-178 2860.9824,-178"/>
<polygon fill="#000000" stroke="#000000" points="2860.9825,-181.5001 2870.9824,-178 2860.9824,-174.5001 2860.9825,-181.5001"/>
</g>
<!-- IonicModule&#45;&gt;DialogsPageModule -->
<g id="edge22" class="edge">
<title>IonicModule&#45;&gt;DialogsPageModule</title>
<path fill="none" stroke="#000000" d="M2093.3285,-115C2209.8291,-115 2515.7181,-115 2515.7181,-115 2515.7181,-115 2515.7181,-149.7778 2515.7181,-149.7778"/>
<polygon fill="#000000" stroke="#000000" points="2512.2182,-149.7778 2515.7181,-159.7778 2519.2182,-149.7778 2512.2182,-149.7778"/>
</g>
<!-- IonicModule&#45;&gt;FormsPageModule -->
<g id="edge27" class="edge">
<title>IonicModule&#45;&gt;FormsPageModule</title>
<path fill="none" stroke="#000000" d="M2093.2597,-109C2234.3707,-109 2664.4233,-109 2664.4233,-109 2664.4233,-109 2664.4233,-149.8711 2664.4233,-149.8711"/>
<polygon fill="#000000" stroke="#000000" points="2660.9234,-149.871 2664.4233,-159.8711 2667.9234,-149.8711 2660.9234,-149.871"/>
</g>
<!-- IonicModule&#45;&gt;GridsPageModule -->
<g id="edge32" class="edge">
<title>IonicModule&#45;&gt;GridsPageModule</title>
<path fill="none" stroke="#000000" d="M2093.3453,-102C2255.6124,-102 2807.644,-102 2807.644,-102 2807.644,-102 2807.644,-149.9891 2807.644,-149.9891"/>
<polygon fill="#000000" stroke="#000000" points="2804.1441,-149.989 2807.644,-159.9891 2811.1441,-149.9891 2804.1441,-149.989"/>
</g>
<!-- IonicModule&#45;&gt;HomePageModule -->
<g id="edge37" class="edge">
<title>IonicModule&#45;&gt;HomePageModule</title>
<path fill="none" stroke="#000000" d="M2063.7193,-128.2228C2063.7193,-148.3652 2063.7193,-178 2063.7193,-178 2063.7193,-178 2114.3596,-178 2114.3596,-178"/>
<polygon fill="#000000" stroke="#000000" points="2114.3597,-181.5001 2124.3596,-178 2114.3596,-174.5001 2114.3597,-181.5001"/>
</g>
<!-- IonicModule&#45;&gt;MapsPageModule -->
<g id="edge42" class="edge">
<title>IonicModule&#45;&gt;MapsPageModule</title>
<path fill="none" stroke="#000000" d="M2063.7193,-91.8097C2063.7193,-88.4624 2063.7193,-86 2063.7193,-86 2063.7193,-86 4340.9216,-86 4340.9216,-86 4340.9216,-86 4340.9216,-149.8238 4340.9216,-149.8238"/>
<polygon fill="#000000" stroke="#000000" points="4337.4217,-149.8237 4340.9216,-159.8238 4344.4217,-149.8238 4337.4217,-149.8237"/>
</g>
<!-- IonicModule&#45;&gt;PdfPageModule -->
<g id="edge55" class="edge">
<title>IonicModule&#45;&gt;PdfPageModule</title>
<path fill="none" stroke="#000000" d="M2034.2807,-91.5782C2034.2807,-82.7209 2034.2807,-74 2034.2807,-74 2034.2807,-74 4572.8999,-74 4572.8999,-74 4572.8999,-74 4572.8999,-149.8846 4572.8999,-149.8846"/>
<polygon fill="#000000" stroke="#000000" points="4569.4,-149.8845 4572.8999,-159.8846 4576.4,-149.8846 4569.4,-149.8845"/>
</g>
<!-- IonicModule&#45;&gt;ToolbarsPageModule -->
<g id="edge60" class="edge">
<title>IonicModule&#45;&gt;ToolbarsPageModule</title>
<path fill="none" stroke="#000000" d="M2093.1935,-122C2178.9872,-122 2359.7541,-122 2359.7541,-122 2359.7541,-122 2359.7541,-149.973 2359.7541,-149.973"/>
<polygon fill="#000000" stroke="#000000" points="2356.2542,-149.973 2359.7541,-159.973 2363.2542,-149.973 2356.2542,-149.973"/>
</g>
<!-- RouterModule.forChild(args) -->
<g id="node14" class="node">
<title>RouterModule.forChild(args)</title>
<polygon fill="#8dd3c7" stroke="#000000" points="1986.7323,-128 1983.7323,-132 1962.7323,-132 1959.7323,-128 1805.2677,-128 1805.2677,-92 1986.7323,-92 1986.7323,-128"/>
<text text-anchor="middle" x="1896" y="-105.8" font-family="Times,serif" font-size="14.00" fill="#000000">RouterModule.forChild(args)</text>
</g>
<!-- RouterModule.forChild(args)&#45;&gt;CalendarPageModule -->
<g id="edge13" class="edge">
<title>RouterModule.forChild(args)&#45;&gt;CalendarPageModule</title>
<path fill="none" stroke="#000000" d="M1805.1303,-110C1798.4388,-110 1794.2402,-110 1794.2402,-110 1794.2402,-110 1794.2402,-149.7772 1794.2402,-149.7772"/>
<polygon fill="#000000" stroke="#000000" points="1790.7403,-149.7772 1794.2402,-159.7772 1797.7403,-149.7773 1790.7403,-149.7772"/>
</g>
<!-- RouterModule.forChild(args)&#45;&gt;CardsPageModule -->
<g id="edge19" class="edge">
<title>RouterModule.forChild(args)&#45;&gt;CardsPageModule</title>
<path fill="none" stroke="#000000" d="M1934.8355,-128.1686C1934.8355,-132.0459 1934.8355,-135 1934.8355,-135 1934.8355,-135 2876.8334,-135 2876.8334,-135 2876.8334,-135 2876.8334,-149.5146 2876.8334,-149.5146"/>
<polygon fill="#000000" stroke="#000000" points="2873.3335,-149.5145 2876.8334,-159.5146 2880.3335,-149.5146 2873.3335,-149.5145"/>
</g>
<!-- RouterModule.forChild(args)&#45;&gt;DialogsPageModule -->
<g id="edge24" class="edge">
<title>RouterModule.forChild(args)&#45;&gt;DialogsPageModule</title>
<path fill="none" stroke="#000000" d="M1857.1645,-128.1097C1857.1645,-137.897 1857.1645,-148 1857.1645,-148 1857.1645,-148 2494,-148 2494,-148 2494,-148 2494,-149.8568 2494,-149.8568"/>
<polygon fill="#000000" stroke="#000000" points="2490.5001,-149.8568 2494,-159.8568 2497.5001,-149.8568 2490.5001,-149.8568"/>
</g>
<!-- RouterModule.forChild(args)&#45;&gt;FormsPageModule -->
<g id="edge29" class="edge">
<title>RouterModule.forChild(args)&#45;&gt;FormsPageModule</title>
<path fill="none" stroke="#000000" d="M1883.0548,-128.1944C1883.0548,-136.2782 1883.0548,-144 1883.0548,-144 1883.0548,-144 2644,-144 2644,-144 2644,-144 2644,-149.8056 2644,-149.8056"/>
<polygon fill="#000000" stroke="#000000" points="2640.5001,-149.8055 2644,-159.8056 2647.5001,-149.8056 2640.5001,-149.8055"/>
</g>
<!-- RouterModule.forChild(args)&#45;&gt;GridsPageModule -->
<g id="edge34" class="edge">
<title>RouterModule.forChild(args)&#45;&gt;GridsPageModule</title>
<path fill="none" stroke="#000000" d="M1908.9452,-128.2015C1908.9452,-134.028 1908.9452,-139 1908.9452,-139 1908.9452,-139 2788,-139 2788,-139 2788,-139 2788,-149.8701 2788,-149.8701"/>
<polygon fill="#000000" stroke="#000000" points="2784.5001,-149.8701 2788,-159.8701 2791.5001,-149.8701 2784.5001,-149.8701"/>
</g>
<!-- RouterModule.forChild(args)&#45;&gt;HomePageModule -->
<g id="edge39" class="edge">
<title>RouterModule.forChild(args)&#45;&gt;HomePageModule</title>
<path fill="none" stroke="#000000" d="M1960.7258,-128.2479C1960.7258,-151.0179 1960.7258,-187 1960.7258,-187 1960.7258,-187 2114.3082,-187 2114.3082,-187"/>
<polygon fill="#000000" stroke="#000000" points="2114.3082,-190.5001 2124.3082,-187 2114.3081,-183.5001 2114.3082,-190.5001"/>
</g>
<!-- RouterModule.forChild(args)&#45;&gt;MapsPageModule -->
<g id="edge43" class="edge">
<title>RouterModule.forChild(args)&#45;&gt;MapsPageModule</title>
<path fill="none" stroke="#000000" d="M1926.2054,-91.8568C1926.2054,-85.5389 1926.2054,-80 1926.2054,-80 1926.2054,-80 4342.8487,-80 4342.8487,-80 4342.8487,-80 4342.8487,-149.5669 4342.8487,-149.5669"/>
<polygon fill="#000000" stroke="#000000" points="4339.3488,-149.5669 4342.8487,-159.5669 4346.3488,-149.567 4339.3488,-149.5669"/>
</g>
<!-- RouterModule.forChild(args)&#45;&gt;PdfPageModule -->
<g id="edge56" class="edge">
<title>RouterModule.forChild(args)&#45;&gt;PdfPageModule</title>
<path fill="none" stroke="#000000" d="M1865.7946,-91.9445C1865.7946,-80.561 1865.7946,-68 1865.7946,-68 1865.7946,-68 4574.9022,-68 4574.9022,-68 4574.9022,-68 4574.9022,-149.8357 4574.9022,-149.8357"/>
<polygon fill="#000000" stroke="#000000" points="4571.4022,-149.8357 4574.9022,-159.8357 4578.4022,-149.8358 4571.4022,-149.8357"/>
</g>
<!-- RouterModule.forChild(args)&#45;&gt;ToolbarsPageModule -->
<g id="edge62" class="edge">
<title>RouterModule.forChild(args)&#45;&gt;ToolbarsPageModule</title>
<path fill="none" stroke="#000000" d="M1831.2742,-128.4854C1831.2742,-140.1399 1831.2742,-153 1831.2742,-153 1831.2742,-153 2337,-153 2337,-153 2337,-153 2337,-153.6831 2337,-153.6831"/>
<polygon fill="#000000" stroke="#000000" points="2333.5002,-149.8313 2337,-159.8314 2340.5002,-149.8314 2333.5002,-149.8313"/>
</g>
<!-- FullCalendarModule -->
<g id="node15" class="node">
<title>FullCalendarModule</title>
<polygon fill="#8dd3c7" stroke="#000000" points="1545.1457,-128 1542.1457,-132 1521.1457,-132 1518.1457,-128 1412.8543,-128 1412.8543,-92 1545.1457,-92 1545.1457,-128"/>
<text text-anchor="middle" x="1479" y="-105.8" font-family="Times,serif" font-size="14.00" fill="#000000">FullCalendarModule</text>
</g>
<!-- FullCalendarModule&#45;&gt;CalendarPageModule -->
<g id="edge14" class="edge">
<title>FullCalendarModule&#45;&gt;CalendarPageModule</title>
<path fill="none" stroke="#000000" d="M1479,-128.2228C1479,-148.3652 1479,-178 1479,-178 1479,-178 1653.2008,-178 1653.2008,-178"/>
<polygon fill="#000000" stroke="#000000" points="1653.2009,-181.5001 1663.2008,-178 1653.2008,-174.5001 1653.2009,-181.5001"/>
</g>
<!-- OkodeNgxCustomPaletteModule -->
<g id="node17" class="node">
<title>OkodeNgxCustomPaletteModule</title>
<polygon fill="#8dd3c7" stroke="#000000" points="3081.1385,-128 3078.1385,-132 3057.1385,-132 3054.1385,-128 2878.8615,-128 2878.8615,-92 3081.1385,-92 3081.1385,-128"/>
<text text-anchor="middle" x="2980" y="-105.8" font-family="Times,serif" font-size="14.00" fill="#000000">OkodeNgxCustomPaletteModule</text>
</g>
<!-- OkodeNgxCustomPaletteModule&#45;&gt;CardsPageModule -->
<g id="edge18" class="edge">
<title>OkodeNgxCustomPaletteModule&#45;&gt;CardsPageModule</title>
<path fill="none" stroke="#000000" d="M2934.695,-128.2228C2934.695,-128.2228 2934.695,-149.7269 2934.695,-149.7269"/>
<polygon fill="#000000" stroke="#000000" points="2931.195,-149.7269 2934.695,-159.7269 2938.195,-149.727 2931.195,-149.7269"/>
</g>
<!-- OkodeNgxCustomPaletteModule&#45;&gt;DialogsPageModule -->
<g id="edge23" class="edge">
<title>OkodeNgxCustomPaletteModule&#45;&gt;DialogsPageModule</title>
<path fill="none" stroke="#000000" d="M2878.7444,-112C2748.105,-112 2537.4362,-112 2537.4362,-112 2537.4362,-112 2537.4362,-149.9652 2537.4362,-149.9652"/>
<polygon fill="#000000" stroke="#000000" points="2533.9363,-149.9652 2537.4362,-159.9652 2540.9363,-149.9652 2533.9363,-149.9652"/>
</g>
<!-- OkodeNgxCustomPaletteModule&#45;&gt;FormsPageModule -->
<g id="edge28" class="edge">
<title>OkodeNgxCustomPaletteModule&#45;&gt;FormsPageModule</title>
<path fill="none" stroke="#000000" d="M2878.8379,-119C2793.397,-119 2684.8467,-119 2684.8467,-119 2684.8467,-119 2684.8467,-149.9775 2684.8467,-149.9775"/>
<polygon fill="#000000" stroke="#000000" points="2681.3468,-149.9774 2684.8467,-159.9775 2688.3468,-149.9775 2681.3468,-149.9774"/>
</g>
<!-- OkodeNgxCustomPaletteModule&#45;&gt;GridsPageModule -->
<g id="edge33" class="edge">
<title>OkodeNgxCustomPaletteModule&#45;&gt;GridsPageModule</title>
<path fill="none" stroke="#000000" d="M2878.5637,-125C2850.3576,-125 2827.288,-125 2827.288,-125 2827.288,-125 2827.288,-149.7604 2827.288,-149.7604"/>
<polygon fill="#000000" stroke="#000000" points="2823.7881,-149.7604 2827.288,-159.7604 2830.7881,-149.7604 2823.7881,-149.7604"/>
</g>
<!-- OkodeNgxCustomPaletteModule&#45;&gt;HomePageModule -->
<g id="edge38" class="edge">
<title>OkodeNgxCustomPaletteModule&#45;&gt;HomePageModule</title>
<path fill="none" stroke="#000000" d="M2878.8409,-99C2670.9938,-99 2215.2433,-99 2215.2433,-99 2215.2433,-99 2215.2433,-149.6772 2215.2433,-149.6772"/>
<polygon fill="#000000" stroke="#000000" points="2211.7434,-149.6772 2215.2433,-159.6772 2218.7434,-149.6773 2211.7434,-149.6772"/>
</g>
<!-- IonHeaderDirective  -->
<g id="node25" class="node">
<title>IonHeaderDirective </title>
<polygon fill="#fb8072" stroke="#000000" points="4305.1549,-196 4174.8451,-196 4174.8451,-160 4305.1549,-160 4305.1549,-196"/>
<text text-anchor="middle" x="4240" y="-173.8" font-family="Times,serif" font-size="14.00" fill="#000000">IonHeaderDirective </text>
</g>
<!-- OkodeNgxCustomPaletteModule&#45;&gt;IonHeaderDirective  -->
<g id="edge45" class="edge">
<title>OkodeNgxCustomPaletteModule&#45;&gt;IonHeaderDirective </title>
<path fill="none" stroke="#000000" stroke-dasharray="5,2" d="M3081.2464,-97C3380.4827,-97 4240,-97 4240,-97 4240,-97 4240,-149.6198 4240,-149.6198"/>
<polygon fill="#000000" stroke="#000000" points="4236.5001,-149.6198 4240,-159.6198 4243.5001,-149.6199 4236.5001,-149.6198"/>
</g>
<!-- IonContentDirective  -->
<g id="node26" class="node">
<title>IonContentDirective </title>
<polygon fill="#fb8072" stroke="#000000" points="4156.0765,-196 4021.9235,-196 4021.9235,-160 4156.0765,-160 4156.0765,-196"/>
<text text-anchor="middle" x="4089" y="-173.8" font-family="Times,serif" font-size="14.00" fill="#000000">IonContentDirective </text>
</g>
<!-- OkodeNgxCustomPaletteModule&#45;&gt;IonContentDirective  -->
<g id="edge46" class="edge">
<title>OkodeNgxCustomPaletteModule&#45;&gt;IonContentDirective </title>
<path fill="none" stroke="#000000" stroke-dasharray="5,2" d="M3081.3563,-101C3355.1258,-101 4089,-101 4089,-101 4089,-101 4089,-149.7521 4089,-149.7521"/>
<polygon fill="#000000" stroke="#000000" points="4085.5001,-149.752 4089,-159.7521 4092.5001,-149.7521 4085.5001,-149.752"/>
</g>
<!-- IonFooterDirective  -->
<g id="node27" class="node">
<title>IonFooterDirective </title>
<polygon fill="#fb8072" stroke="#000000" points="4003.292,-196 3876.708,-196 3876.708,-160 4003.292,-160 4003.292,-196"/>
<text text-anchor="middle" x="3940" y="-173.8" font-family="Times,serif" font-size="14.00" fill="#000000">IonFooterDirective </text>
</g>
<!-- OkodeNgxCustomPaletteModule&#45;&gt;IonFooterDirective  -->
<g id="edge47" class="edge">
<title>OkodeNgxCustomPaletteModule&#45;&gt;IonFooterDirective </title>
<path fill="none" stroke="#000000" stroke-dasharray="5,2" d="M3081.3748,-106C3328.1474,-106 3940,-106 3940,-106 3940,-106 3940,-149.8314 3940,-149.8314"/>
<polygon fill="#000000" stroke="#000000" points="3936.5001,-149.8313 3940,-159.8314 3943.5001,-149.8314 3936.5001,-149.8313"/>
</g>
<!-- IonItemDirective  -->
<g id="node28" class="node">
<title>IonItemDirective </title>
<polygon fill="#fb8072" stroke="#000000" points="3858.8998,-196 3743.1002,-196 3743.1002,-160 3858.8998,-160 3858.8998,-196"/>
<text text-anchor="middle" x="3801" y="-173.8" font-family="Times,serif" font-size="14.00" fill="#000000">IonItemDirective </text>
</g>
<!-- OkodeNgxCustomPaletteModule&#45;&gt;IonItemDirective  -->
<g id="edge48" class="edge">
<title>OkodeNgxCustomPaletteModule&#45;&gt;IonItemDirective </title>
<path fill="none" stroke="#000000" stroke-dasharray="5,2" d="M3081.4942,-110C3301.1533,-110 3801,-110 3801,-110 3801,-110 3801,-149.7772 3801,-149.7772"/>
<polygon fill="#000000" stroke="#000000" points="3797.5001,-149.7772 3801,-159.7772 3804.5001,-149.7773 3797.5001,-149.7772"/>
</g>
<!-- IonInputDirective  -->
<g id="node29" class="node">
<title>IonInputDirective </title>
<polygon fill="#fb8072" stroke="#000000" points="3724.7948,-196 3605.2052,-196 3605.2052,-160 3724.7948,-160 3724.7948,-196"/>
<text text-anchor="middle" x="3665" y="-173.8" font-family="Times,serif" font-size="14.00" fill="#000000">IonInputDirective </text>
</g>
<!-- OkodeNgxCustomPaletteModule&#45;&gt;IonInputDirective  -->
<g id="edge49" class="edge">
<title>OkodeNgxCustomPaletteModule&#45;&gt;IonInputDirective </title>
<path fill="none" stroke="#000000" stroke-dasharray="5,2" d="M3081.4427,-115C3272.1251,-115 3665,-115 3665,-115 3665,-115 3665,-149.7778 3665,-149.7778"/>
<polygon fill="#000000" stroke="#000000" points="3661.5001,-149.7778 3665,-159.7778 3668.5001,-149.7778 3661.5001,-149.7778"/>
</g>
<!-- IonSelectDirective  -->
<g id="node30" class="node">
<title>IonSelectDirective </title>
<polygon fill="#fb8072" stroke="#000000" points="3587.4518,-196 3462.5482,-196 3462.5482,-160 3587.4518,-160 3587.4518,-196"/>
<text text-anchor="middle" x="3525" y="-173.8" font-family="Times,serif" font-size="14.00" fill="#000000">IonSelectDirective </text>
</g>
<!-- OkodeNgxCustomPaletteModule&#45;&gt;IonSelectDirective  -->
<g id="edge50" class="edge">
<title>OkodeNgxCustomPaletteModule&#45;&gt;IonSelectDirective </title>
<path fill="none" stroke="#000000" stroke-dasharray="5,2" d="M3081.2331,-119C3238.843,-119 3525,-119 3525,-119 3525,-119 3525,-149.9775 3525,-149.9775"/>
<polygon fill="#000000" stroke="#000000" points="3521.5001,-149.9774 3525,-159.9775 3528.5001,-149.9775 3521.5001,-149.9774"/>
</g>
<!-- IonDateTimeDirective  -->
<g id="node31" class="node">
<title>IonDateTimeDirective </title>
<polygon fill="#fb8072" stroke="#000000" points="3445.2184,-196 3298.7816,-196 3298.7816,-160 3445.2184,-160 3445.2184,-196"/>
<text text-anchor="middle" x="3372" y="-173.8" font-family="Times,serif" font-size="14.00" fill="#000000">IonDateTimeDirective </text>
</g>
<!-- OkodeNgxCustomPaletteModule&#45;&gt;IonDateTimeDirective  -->
<g id="edge51" class="edge">
<title>OkodeNgxCustomPaletteModule&#45;&gt;IonDateTimeDirective </title>
<path fill="none" stroke="#000000" stroke-dasharray="5,2" d="M3081.2045,-124C3197.3522,-124 3372,-124 3372,-124 3372,-124 3372,-149.7181 3372,-149.7181"/>
<polygon fill="#000000" stroke="#000000" points="3368.5001,-149.718 3372,-159.7181 3375.5001,-149.7181 3368.5001,-149.718"/>
</g>
<!-- IonRadioGroupDirective  -->
<g id="node32" class="node">
<title>IonRadioGroupDirective </title>
<polygon fill="#fb8072" stroke="#000000" points="3280.953,-196 3121.047,-196 3121.047,-160 3280.953,-160 3280.953,-196"/>
<text text-anchor="middle" x="3201" y="-173.8" font-family="Times,serif" font-size="14.00" fill="#000000">IonRadioGroupDirective </text>
</g>
<!-- OkodeNgxCustomPaletteModule&#45;&gt;IonRadioGroupDirective  -->
<g id="edge52" class="edge">
<title>OkodeNgxCustomPaletteModule&#45;&gt;IonRadioGroupDirective </title>
<path fill="none" stroke="#000000" stroke-dasharray="5,2" d="M3036.014,-128.2228C3036.014,-148.3652 3036.014,-178 3036.014,-178 3036.014,-178 3110.9235,-178 3110.9235,-178"/>
<polygon fill="#000000" stroke="#000000" points="3110.9235,-181.5001 3120.9235,-178 3110.9235,-174.5001 3110.9235,-181.5001"/>
</g>
<!-- OkodeNgxCustomPaletteModule&#45;&gt;ToolbarsPageModule -->
<g id="edge61" class="edge">
<title>OkodeNgxCustomPaletteModule&#45;&gt;ToolbarsPageModule</title>
<path fill="none" stroke="#000000" d="M2878.6437,-106C2708.1766,-106 2382.5082,-106 2382.5082,-106 2382.5082,-106 2382.5082,-149.8314 2382.5082,-149.8314"/>
<polygon fill="#000000" stroke="#000000" points="2379.0083,-149.8313 2382.5082,-159.8314 2386.0083,-149.8314 2379.0083,-149.8313"/>
</g>
<!-- AgmCoreModule.forRoot(args) -->
<g id="node23" class="node">
<title>AgmCoreModule.forRoot(args)</title>
<polygon fill="#8dd3c7" stroke="#000000" points="4539.4487,-128 4536.4487,-132 4515.4487,-132 4512.4487,-128 4344.5513,-128 4344.5513,-92 4539.4487,-92 4539.4487,-128"/>
<text text-anchor="middle" x="4442" y="-105.8" font-family="Times,serif" font-size="14.00" fill="#000000">AgmCoreModule.forRoot(args)</text>
</g>
<!-- AgmCoreModule.forRoot(args)&#45;&gt;MapsPageModule -->
<g id="edge44" class="edge">
<title>AgmCoreModule.forRoot(args)&#45;&gt;MapsPageModule</title>
<path fill="none" stroke="#000000" d="M4418.2138,-128.2228C4418.2138,-128.2228 4418.2138,-149.7269 4418.2138,-149.7269"/>
<polygon fill="#000000" stroke="#000000" points="4414.7139,-149.7269 4418.2138,-159.7269 4421.7139,-149.727 4414.7139,-149.7269"/>
</g>
<!-- PdfViewerModule -->
<g id="node33" class="node">
<title>PdfViewerModule</title>
<polygon fill="#8dd3c7" stroke="#000000" points="4699.1867,-128 4696.1867,-132 4675.1867,-132 4672.1867,-128 4578.8133,-128 4578.8133,-92 4699.1867,-92 4699.1867,-128"/>
<text text-anchor="middle" x="4639" y="-105.8" font-family="Times,serif" font-size="14.00" fill="#000000">PdfViewerModule</text>
</g>
<!-- PdfViewerModule&#45;&gt;PdfPageModule -->
<g id="edge57" class="edge">
<title>PdfViewerModule&#45;&gt;PdfPageModule</title>
<path fill="none" stroke="#000000" d="M4644.3705,-128.2228C4644.3705,-128.2228 4644.3705,-149.7269 4644.3705,-149.7269"/>
<polygon fill="#000000" stroke="#000000" points="4640.8706,-149.7269 4644.3705,-159.7269 4647.8706,-149.727 4640.8706,-149.7269"/>
</g>
</g>
</svg>
