<?xml version="1.0" encoding="UTF-8" standalone="no"?>
<!DOCTYPE svg PUBLIC "-//W3C//DTD SVG 1.1//EN"
 "http://www.w3.org/Graphics/SVG/1.1/DTD/svg11.dtd">
<!-- Generated by graphviz version 2.40.1 (20161225.0304)
 -->
<!-- Title: dependencies Pages: 1 -->
<svg width="907pt" height="211pt"
 viewBox="0.00 0.00 907.00 211.00" xmlns="http://www.w3.org/2000/svg" xmlns:xlink="http://www.w3.org/1999/xlink">
<g id="graph0" class="graph" transform="scale(1 1) rotate(0) translate(4 207)">
<title>dependencies</title>
<polygon fill="#ffffff" stroke="transparent" points="-4,4 -4,-207 903,-207 903,4 -4,4"/>
<text text-anchor="start" x="428.5091" y="-42.4" font-family="sans-serif" font-weight="bold" font-size="14.00" fill="#000000">Legend</text>
<polygon fill="#ffffb3" stroke="transparent" points="215.5,-10 215.5,-30 235.5,-30 235.5,-10 215.5,-10"/>
<text text-anchor="start" x="239.129" y="-15.4" font-family="sans-serif" font-size="14.00" fill="#000000"> &#160;Declarations</text>
<polygon fill="#8dd3c7" stroke="transparent" points="328.5,-10 328.5,-30 348.5,-30 348.5,-10 328.5,-10"/>
<text text-anchor="start" x="352.2251" y="-15.4" font-family="sans-serif" font-size="14.00" fill="#000000"> &#160;Module</text>
<polygon fill="#80b1d3" stroke="transparent" points="414.5,-10 414.5,-30 434.5,-30 434.5,-10 414.5,-10"/>
<text text-anchor="start" x="438.2812" y="-15.4" font-family="sans-serif" font-size="14.00" fill="#000000"> &#160;Bootstrap</text>
<polygon fill="#fdb462" stroke="transparent" points="511.5,-10 511.5,-30 531.5,-30 531.5,-10 511.5,-10"/>
<text text-anchor="start" x="535.1732" y="-15.4" font-family="sans-serif" font-size="14.00" fill="#000000"> &#160;Providers</text>
<polygon fill="#fb8072" stroke="transparent" points="607.5,-10 607.5,-30 627.5,-30 627.5,-10 607.5,-10"/>
<text text-anchor="start" x="631.2258" y="-15.4" font-family="sans-serif" font-size="14.00" fill="#000000"> &#160;Exports</text>
<g id="clust1" class="cluster">
<title>cluster_CardsPageModule</title>
<polygon fill="none" stroke="#000000" stroke-dasharray="1,5" points="8,-70 8,-195 891,-195 891,-70 8,-70"/>
</g>
<g id="clust2" class="cluster">
<title>cluster_CardsPageModule_declarations</title>
<polygon fill="none" stroke="#000000" points="791,-78 791,-130 883,-130 883,-78 791,-78"/>
</g>
<g id="clust4" class="cluster">
<title>cluster_CardsPageModule_imports</title>
<polygon fill="none" stroke="#000000" points="16,-78 16,-130 783,-130 783,-78 16,-78"/>
</g>
<!-- CardsPage -->
<g id="node1" class="node">
<title>CardsPage</title>
<polygon fill="#ffffb3" stroke="#000000" points="874.8683,-122 799.1317,-122 799.1317,-86 874.8683,-86 874.8683,-122"/>
<text text-anchor="middle" x="837" y="-99.8" font-family="Times,serif" font-size="14.00" fill="#000000">CardsPage</text>
</g>
<!-- CardsPageModule -->
<g id="node2" class="node">
<title>CardsPageModule</title>
<polygon fill="#8dd3c7" stroke="#000000" points="602.9187,-187 599.9187,-191 578.9187,-191 575.9187,-187 483.0813,-187 483.0813,-151 602.9187,-151 602.9187,-187"/>
<text text-anchor="middle" x="543" y="-164.8" font-family="Times,serif" font-size="14.00" fill="#000000">CardsPageModule</text>
</g>
<!-- CardsPage&#45;&gt;CardsPageModule -->
<g id="edge1" class="edge">
<title>CardsPage&#45;&gt;CardsPageModule</title>
<path fill="none" stroke="#000000" d="M837,-122.2843C837,-143.3211 837,-175 837,-175 837,-175 612.8497,-175 612.8497,-175"/>
<polygon fill="#000000" stroke="#000000" points="612.8497,-171.5001 602.8497,-175 612.8496,-178.5001 612.8497,-171.5001"/>
</g>
<!-- CommonModule -->
<g id="node3" class="node">
<title>CommonModule</title>
<polygon fill="#8dd3c7" stroke="#000000" points="774.6681,-122 771.6681,-126 750.6681,-126 747.6681,-122 663.3319,-122 663.3319,-86 774.6681,-86 774.6681,-122"/>
<text text-anchor="middle" x="719" y="-99.8" font-family="Times,serif" font-size="14.00" fill="#000000">CommonModule</text>
</g>
<!-- CommonModule&#45;&gt;CardsPageModule -->
<g id="edge2" class="edge">
<title>CommonModule&#45;&gt;CardsPageModule</title>
<path fill="none" stroke="#000000" d="M719,-122.0225C719,-139.3734 719,-163 719,-163 719,-163 613.077,-163 613.077,-163"/>
<polygon fill="#000000" stroke="#000000" points="613.077,-159.5001 603.077,-163 613.0769,-166.5001 613.077,-159.5001"/>
</g>
<!-- FormsModule -->
<g id="node4" class="node">
<title>FormsModule</title>
<polygon fill="#8dd3c7" stroke="#000000" points="645.8288,-122 642.8288,-126 621.8288,-126 618.8288,-122 550.1712,-122 550.1712,-86 645.8288,-86 645.8288,-122"/>
<text text-anchor="middle" x="598" y="-99.8" font-family="Times,serif" font-size="14.00" fill="#000000">FormsModule</text>
</g>
<!-- FormsModule&#45;&gt;CardsPageModule -->
<g id="edge3" class="edge">
<title>FormsModule&#45;&gt;CardsPageModule</title>
<path fill="none" stroke="#000000" d="M576.5224,-122.1061C576.5224,-122.1061 576.5224,-140.991 576.5224,-140.991"/>
<polygon fill="#000000" stroke="#000000" points="573.0225,-140.9909 576.5224,-150.991 580.0225,-140.991 573.0225,-140.9909"/>
</g>
<!-- IonicModule -->
<g id="node5" class="node">
<title>IonicModule</title>
<polygon fill="#8dd3c7" stroke="#000000" points="532.3162,-122 529.3162,-126 508.3162,-126 505.3162,-122 443.6838,-122 443.6838,-86 532.3162,-86 532.3162,-122"/>
<text text-anchor="middle" x="488" y="-99.8" font-family="Times,serif" font-size="14.00" fill="#000000">IonicModule</text>
</g>
<!-- IonicModule&#45;&gt;CardsPageModule -->
<g id="edge4" class="edge">
<title>IonicModule&#45;&gt;CardsPageModule</title>
<path fill="none" stroke="#000000" d="M507.7244,-122.1061C507.7244,-122.1061 507.7244,-140.991 507.7244,-140.991"/>
<polygon fill="#000000" stroke="#000000" points="504.2245,-140.9909 507.7244,-150.991 511.2245,-140.991 504.2245,-140.9909"/>
</g>
<!-- OkodeNgxCustomPaletteModule -->
<g id="node6" class="node">
<title>OkodeNgxCustomPaletteModule</title>
<polygon fill="#8dd3c7" stroke="#000000" points="426.1385,-122 423.1385,-126 402.1385,-126 399.1385,-122 223.8615,-122 223.8615,-86 426.1385,-86 426.1385,-122"/>
<text text-anchor="middle" x="325" y="-99.8" font-family="Times,serif" font-size="14.00" fill="#000000">OkodeNgxCustomPaletteModule</text>
</g>
<!-- OkodeNgxCustomPaletteModule&#45;&gt;CardsPageModule -->
<g id="edge5" class="edge">
<title>OkodeNgxCustomPaletteModule&#45;&gt;CardsPageModule</title>
<path fill="none" stroke="#000000" d="M325,-122.0225C325,-139.3734 325,-163 325,-163 325,-163 473.1422,-163 473.1422,-163"/>
<polygon fill="#000000" stroke="#000000" points="473.1422,-166.5001 483.1422,-163 473.1422,-159.5001 473.1422,-166.5001"/>
</g>
<!-- RouterModule.forChild(args) -->
<g id="node7" class="node">
<title>RouterModule.forChild(args)</title>
<polygon fill="#8dd3c7" stroke="#000000" points="205.7323,-122 202.7323,-126 181.7323,-126 178.7323,-122 24.2677,-122 24.2677,-86 205.7323,-86 205.7323,-122"/>
<text text-anchor="middle" x="115" y="-99.8" font-family="Times,serif" font-size="14.00" fill="#000000">RouterModule.forChild(args)</text>
</g>
<!-- RouterModule.forChild(args)&#45;&gt;CardsPageModule -->
<g id="edge6" class="edge">
<title>RouterModule.forChild(args)&#45;&gt;CardsPageModule</title>
<path fill="none" stroke="#000000" d="M115,-122.2843C115,-143.3211 115,-175 115,-175 115,-175 473.0378,-175 473.0378,-175"/>
<polygon fill="#000000" stroke="#000000" points="473.0378,-178.5001 483.0378,-175 473.0377,-171.5001 473.0378,-178.5001"/>
</g>
</g>
</svg>
